<svg width="23" height="22" viewBox="0 0 23 22" fill="none" xmlns="http://www.w3.org/2000/svg">
<path d="M22.273 11.6133C22.266 11.7133 22.258 11.8244 22.252 11.9294C22.2273 12.3856 22.1721 12.8396 22.0869 13.2884C21.7488 15.0827 20.9714 16.7654 19.8245 18.1861C18.6775 19.6068 17.1966 20.7215 15.5139 21.4304C15.2779 21.5304 15.0369 21.6184 14.7959 21.7004C14.6445 21.753 14.4793 21.7501 14.3299 21.6923C14.2335 21.6537 14.1512 21.5865 14.094 21.4998C14.0368 21.4131 14.0074 21.3111 14.0098 21.2073C14.0098 20.7073 14.0168 20.2074 14.0178 19.7004C14.0178 19.1584 14.0248 18.6174 14.0178 18.0764C14.021 17.6557 13.9419 17.2386 13.7849 16.8483C13.6766 16.5832 13.5126 16.3446 13.304 16.1484L13.2827 16.1243L13.5159 16.0943C14.2887 16.0108 15.0439 15.8085 15.7549 15.4943C16.54 15.1396 17.1916 14.5443 17.6157 13.7944C17.8611 13.3502 18.0379 12.8714 18.1399 12.3743C18.2715 11.7531 18.3245 11.1178 18.2979 10.4833C18.272 9.48358 17.8896 8.52603 17.2197 7.78339C17.2039 7.76894 17.1931 7.74977 17.189 7.7287C17.1848 7.70763 17.1876 7.68571 17.1968 7.66632C17.3557 7.21522 17.4215 6.73657 17.3899 6.25934C17.3628 5.7794 17.2593 5.30681 17.0838 4.85931C17.0797 4.84305 17.0708 4.82849 17.0581 4.81757C17.0454 4.80664 17.0296 4.79997 17.013 4.7984C16.8051 4.77238 16.5943 4.78243 16.3899 4.82831C15.8982 4.93161 15.4257 5.11155 14.9898 5.36139C14.6808 5.53239 14.3848 5.72339 14.0828 5.90839C14.0685 5.91858 14.052 5.92526 14.0347 5.92804C14.0173 5.93082 13.9997 5.9296 13.9829 5.92438C13.4976 5.79306 13.0033 5.69776 12.5039 5.63934C11.9445 5.57365 11.3806 5.55322 10.8179 5.57831C10.4131 5.59563 10.0097 5.63706 9.60988 5.70233C9.26018 5.75868 8.91361 5.83345 8.57179 5.92633C8.55765 5.92941 8.54307 5.92964 8.52882 5.92706C8.51458 5.92449 8.50095 5.91915 8.48879 5.91132C8.01599 5.58951 7.51374 5.31332 6.98879 5.08636C6.678 4.95115 6.35101 4.85699 6.01589 4.80634C5.85986 4.78165 5.70097 4.78165 5.54494 4.80634C5.53294 4.80942 5.52164 4.81505 5.51198 4.82281C5.50232 4.83058 5.49438 4.84032 5.48879 4.85138C5.2715 5.38562 5.16235 5.95765 5.16774 6.53436C5.17059 6.93161 5.24216 7.32533 5.37892 7.6983C5.38409 7.71123 5.38467 7.72557 5.38088 7.73895C5.37708 7.75234 5.36911 7.76412 5.35793 7.7724C4.95016 8.22282 4.64508 8.75643 4.46388 9.33636C4.33457 9.75086 4.26722 10.1822 4.26393 10.6164C4.25693 11.0643 4.28563 11.512 4.34987 11.9554C4.4404 12.657 4.67323 13.3328 5.03395 13.9413C5.42388 14.5719 5.97979 15.0829 6.64089 15.4184C7.15497 15.6812 7.70416 15.8684 8.27174 15.9743C8.58875 16.0363 8.90975 16.0744 9.22975 16.1274L9.26686 16.1353L9.24977 16.1573C8.96559 16.4294 8.76358 16.7759 8.66676 17.1573C8.62776 17.2923 8.60792 17.4303 8.57692 17.5663C8.57226 17.5872 8.55957 17.6055 8.54176 17.6174C8.15354 17.7967 7.73161 17.8908 7.30397 17.8934C6.95871 17.8949 6.61828 17.8118 6.31252 17.6514C6.00676 17.4911 5.74483 17.2583 5.54982 16.9733C5.43882 16.8233 5.34393 16.6584 5.23293 16.5074C5.0107 16.1884 4.71712 15.9254 4.37575 15.7393C4.06319 15.5705 3.69961 15.5221 3.35378 15.6033C3.14878 15.6523 3.11176 15.7753 3.23976 15.9423C3.3349 16.0658 3.45485 16.168 3.59181 16.2424C3.82656 16.3765 4.02876 16.5608 4.18385 16.7823C4.45458 17.1326 4.67622 17.5181 4.84279 17.9283C4.91803 18.1244 5.02434 18.3071 5.15773 18.4693C5.43725 18.7954 5.80955 19.0288 6.22487 19.1384C6.59514 19.2409 6.97882 19.2865 7.36281 19.2734C7.75019 19.2647 8.13623 19.2238 8.51686 19.1513C8.51686 19.1723 8.51686 19.1914 8.51686 19.2114C8.52286 19.862 8.52775 20.5127 8.53175 21.1634C8.53735 21.2667 8.51724 21.3698 8.47292 21.4633C8.42954 21.5465 8.36463 21.6164 8.28493 21.6658C8.20523 21.7153 8.11356 21.7424 8.01979 21.7443C7.86183 21.7495 7.70473 21.7194 7.55983 21.6563C5.88983 21.0596 4.38799 20.0695 3.18141 18.7698C1.97484 17.4701 1.09913 15.8991 0.627946 14.1894C0.484813 13.67 0.381126 13.1403 0.317888 12.6053C0.100963 10.821 0.323585 9.01082 0.966569 7.33234C1.60955 5.65385 2.65335 4.15798 4.00685 2.97528C5.11511 2.0048 6.40752 1.26751 7.8069 0.807312C8.39358 0.613519 8.99583 0.47035 9.60695 0.379333C10.0044 0.318018 10.405 0.280248 10.8069 0.266296C10.8341 0.264889 10.8612 0.261538 10.888 0.256287H11.6189C11.6487 0.261463 11.6786 0.265243 11.7088 0.267395C12.1315 0.282574 12.5532 0.323576 12.971 0.39032C13.5991 0.486455 14.2172 0.639129 14.8179 0.846375C16.4779 1.41571 17.9784 2.37201 19.1956 3.63617C20.4128 4.90033 21.3118 6.43606 21.8179 8.11639C22.0621 8.92952 22.2091 9.76869 22.2559 10.6164C22.2629 10.7164 22.2709 10.8163 22.2769 10.9163L22.273 11.6133Z" fill="white"/>
</svg>
