<svg width="22" height="22" viewBox="0 0 22 22" fill="none" xmlns="http://www.w3.org/2000/svg">
<path d="M16.4949 16.0694C15.5639 16.0694 14.6339 16.0814 13.7029 16.0694C13.4074 16.0709 13.1147 16.0142 12.8411 15.9025C12.5675 15.7908 12.3187 15.6264 12.1087 15.4185C11.8987 15.2107 11.7317 14.9635 11.6172 14.6911C11.5027 14.4187 11.4429 14.1263 11.4414 13.8309C11.4399 13.5354 11.4965 13.2425 11.6082 12.9689C11.7199 12.6954 11.8845 12.4465 12.0923 12.2365C12.3002 12.0265 12.5474 11.8595 12.8199 11.7451C13.0923 11.6306 13.3845 11.5709 13.68 11.5694C15.5833 11.5521 17.4857 11.5521 19.387 11.5694C19.9837 11.5742 20.5541 11.8158 20.9727 12.2411C21.3913 12.6665 21.6237 13.2406 21.6189 13.8373C21.6142 14.4341 21.3726 15.0046 20.9473 15.4232C20.522 15.8417 19.9476 16.0742 19.3509 16.0694H16.4959H16.4949Z" fill="white"/>
<path d="M5.19679 10.3873C4.26379 10.3873 3.33384 10.4073 2.40284 10.3813C2.10361 10.392 1.80533 10.3424 1.52564 10.2355C1.24595 10.1286 0.990702 9.96654 0.774912 9.75896C0.559122 9.55138 0.387207 9.30261 0.269541 9.02727C0.151875 8.75194 0.0907339 8.45572 0.0898535 8.1563C0.0889633 7.85157 0.149158 7.54969 0.266855 7.2686C0.384553 6.98752 0.557404 6.73289 0.775156 6.5197C0.992909 6.30652 1.25116 6.13911 1.53468 6.02739C1.8182 5.91568 2.12114 5.86196 2.42579 5.86931C4.26779 5.84531 6.11194 5.84331 7.95094 5.86931C8.5047 5.85456 9.04441 6.04508 9.46607 6.40435C9.88774 6.76361 10.1615 7.26615 10.2349 7.81524C10.3128 8.30866 10.2205 8.81397 9.97315 9.24798C9.7258 9.68198 9.33806 10.0189 8.87379 10.2033C8.53111 10.3225 8.17068 10.3823 7.80787 10.3803C6.93887 10.4043 6.06701 10.3882 5.19801 10.3882L5.19679 10.3873Z" fill="white"/>
<path d="M10.2819 16.6854C10.2819 17.5964 10.3029 18.5083 10.2819 19.4173C10.2945 19.981 10.0953 20.529 9.72376 20.9531C9.35222 21.3772 8.83525 21.6467 8.27479 21.7083C7.75875 21.7748 7.23566 21.658 6.797 21.3781C6.35835 21.0983 6.03185 20.6733 5.87464 20.1773C5.79469 19.9062 5.75441 19.625 5.75477 19.3424C5.74477 17.5614 5.73177 15.7804 5.75477 13.9994C5.73204 13.701 5.76879 13.4011 5.86268 13.117C5.95656 12.8329 6.10562 12.5703 6.30164 12.3442C6.49766 12.1181 6.73658 11.9332 7.00452 11.8C7.27246 11.6668 7.56412 11.5881 7.86268 11.5683C8.18205 11.5506 8.50175 11.5999 8.80091 11.7131C9.10006 11.8263 9.37215 12.001 9.59974 12.2258C9.82732 12.4506 10.0052 12.7204 10.1222 13.0181C10.2392 13.3159 10.2924 13.6347 10.2787 13.9543C10.2997 14.8643 10.2787 15.7763 10.2787 16.6873L10.2819 16.6854Z" fill="white"/>
<path d="M15.9238 5.36632C15.9238 6.31732 15.9518 7.26625 15.9138 8.21825C15.9078 8.79049 15.678 9.33761 15.2732 9.74217C14.8685 10.1467 14.321 10.3766 13.7488 10.3823C13.4638 10.4018 13.1779 10.3644 12.9075 10.2724C12.637 10.1804 12.3874 10.0357 12.1734 9.84642C11.9594 9.65717 11.7853 9.42721 11.6609 9.17003C11.5365 8.91285 11.4645 8.63351 11.449 8.34825C11.371 6.32825 11.363 4.30133 11.449 2.28233C11.4638 1.98717 11.539 1.69817 11.6702 1.43334C11.8013 1.1685 11.9856 0.933433 12.2114 0.742784C12.4373 0.552134 12.6998 0.409956 12.9829 0.325059C13.266 0.240162 13.5635 0.21434 13.8569 0.249253C14.4164 0.286546 14.9407 0.535153 15.3237 0.944566C15.7068 1.35398 15.9199 1.89367 15.9199 2.45433C15.9199 2.53433 15.9299 2.61527 15.9299 2.69627C15.9299 3.58627 15.9299 4.4773 15.9299 5.3673L15.9238 5.36632Z" fill="white"/>
<path d="M11.3618 17.1584C12.3615 17.1566 13.3603 17.2197 14.3518 17.3473C14.8675 17.4836 15.3135 17.8086 15.6011 18.2578C15.8887 18.7071 15.9969 19.2479 15.9048 19.7734C15.8371 20.2999 15.5853 20.7856 15.1941 21.1444C14.8028 21.5033 14.2973 21.7123 13.7668 21.7344C13.2554 21.7645 12.7499 21.6118 12.3406 21.3037C11.9312 20.9957 11.6447 20.5522 11.532 20.0524C11.4233 19.0915 11.3664 18.1254 11.3618 17.1584Z" fill="white"/>
<path d="M10.2287 4.74236C9.40767 4.74236 8.62879 4.78533 7.86979 4.73333C7.30992 4.69726 6.78365 4.45344 6.3942 4.04961C6.00475 3.64579 5.78009 3.11115 5.76432 2.55035C5.74855 1.98954 5.94285 1.44307 6.309 1.018C6.67514 0.592927 7.18686 0.319852 7.74381 0.252374C8.03082 0.208409 8.32365 0.222918 8.60489 0.295098C8.88614 0.367278 9.14991 0.49567 9.38028 0.672417C9.61065 0.849165 9.80293 1.0707 9.94547 1.32366C10.088 1.57663 10.1778 1.85573 10.2096 2.14434C10.2688 3.00915 10.2752 3.87678 10.2287 4.74236Z" fill="white"/>
<path d="M4.57275 11.5743C4.6131 12.462 4.60672 13.3512 4.55371 14.2383C4.45918 14.7938 4.1563 15.2924 3.70679 15.6323C3.25728 15.9722 2.69505 16.1278 2.13477 16.0674C1.57638 16.0104 1.05877 15.7492 0.681152 15.334C0.303537 14.9187 0.0926282 14.3786 0.0888672 13.8174C0.090064 13.2552 0.30179 12.7139 0.682373 12.3002C1.06296 11.8864 1.58468 11.6304 2.14478 11.5824C2.93078 11.5324 3.71775 11.5743 4.57275 11.5743Z" fill="white"/>
<path d="M17.1279 10.3663C17.0817 9.47232 17.0893 8.57638 17.1509 7.68332C17.2517 7.15169 17.5433 6.67524 17.971 6.34372C18.3986 6.0122 18.9329 5.84842 19.4729 5.88327C20.0533 5.92578 20.5961 6.1868 20.9917 6.61362C21.3874 7.04043 21.6063 7.60134 21.6048 8.18332C21.5997 8.73452 21.3884 9.26382 21.0125 9.66696C20.6365 10.0701 20.1233 10.3178 19.5737 10.3613C18.7737 10.4063 17.9689 10.3663 17.1279 10.3663Z" fill="white"/>
</svg>
