<svg width="124" height="118" viewBox="0 0 124 118" fill="none" xmlns="http://www.w3.org/2000/svg">
<g clip-path="url(#clip0_564_2180)">
<path d="M29.0599 67.3048C44.3416 67.3048 56.7299 54.9166 56.7299 39.6348C56.7299 24.3531 44.3416 11.9648 29.0599 11.9648C13.7782 11.9648 1.38989 24.3531 1.38989 39.6348C1.38989 54.9166 13.7782 67.3048 29.0599 67.3048Z" stroke="#FBFBFB" stroke-linecap="round" stroke-linejoin="round"/>
<path d="M29.1999 60.4749C40.7095 60.4749 50.0399 51.1445 50.0399 39.6349C50.0399 28.1253 40.7095 18.7949 29.1999 18.7949C17.6902 18.7949 8.35986 28.1253 8.35986 39.6349C8.35986 51.1445 17.6902 60.4749 29.1999 60.4749Z" stroke="#FBFBFB" stroke-linecap="round" stroke-linejoin="round"/>
<path d="M29.2 53.615C36.9209 53.615 43.18 47.356 43.18 39.635C43.18 31.9141 36.9209 25.655 29.2 25.655C21.479 25.655 15.22 31.9141 15.22 39.635C15.22 47.356 21.479 53.615 29.2 53.615Z" stroke="#FBFBFB" stroke-linecap="round" stroke-linejoin="round"/>
<path d="M29.2 47.105C33.3255 47.105 36.67 43.7606 36.67 39.635C36.67 35.5095 33.3255 32.165 29.2 32.165C25.0744 32.165 21.73 35.5095 21.73 39.635C21.73 43.7606 25.0744 47.105 29.2 47.105Z" stroke="#FBFBFB" stroke-linecap="round" stroke-linejoin="round"/>
<path d="M65.9099 9.57495C68.2571 9.57495 70.1599 7.67216 70.1599 5.32495C70.1599 2.97774 68.2571 1.07495 65.9099 1.07495C63.5627 1.07495 61.6599 2.97774 61.6599 5.32495C61.6599 7.67216 63.5627 9.57495 65.9099 9.57495Z" stroke="#FBFBFB" stroke-linecap="round" stroke-linejoin="round"/>
<path d="M95.8199 75.6249C111.102 75.6249 123.49 63.2366 123.49 47.9549C123.49 32.6732 111.102 20.2849 95.8199 20.2849C80.5382 20.2849 68.1499 32.6732 68.1499 47.9549C68.1499 63.2366 80.5382 75.6249 95.8199 75.6249Z" stroke="#FBFBFB" stroke-linecap="round" stroke-linejoin="round"/>
<path d="M95.9699 68.795C107.479 68.795 116.81 59.4646 116.81 47.955C116.81 36.4454 107.479 27.115 95.9699 27.115C84.4603 27.115 75.1299 36.4454 75.1299 47.955C75.1299 59.4646 84.4603 68.795 95.9699 68.795Z" stroke="#FBFBFB" stroke-linecap="round" stroke-linejoin="round"/>
<path d="M95.97 61.9349C103.691 61.9349 109.95 55.6758 109.95 47.9549C109.95 40.2339 103.691 33.9749 95.97 33.9749C88.2491 33.9749 81.99 40.2339 81.99 47.9549C81.99 55.6758 88.2491 61.9349 95.97 61.9349Z" stroke="#FBFBFB" stroke-linecap="round" stroke-linejoin="round"/>
<path d="M95.97 55.4249C100.096 55.4249 103.44 52.0804 103.44 47.9549C103.44 43.8293 100.096 40.4849 95.97 40.4849C91.8444 40.4849 88.5 43.8293 88.5 47.9549C88.5 52.0804 91.8444 55.4249 95.97 55.4249Z" stroke="#FBFBFB" stroke-linecap="round" stroke-linejoin="round"/>
<path d="M57.1398 116.525C68.6494 116.525 77.9798 107.195 77.9798 95.685C77.9798 84.1754 68.6494 74.845 57.1398 74.845C45.6302 74.845 36.2998 84.1754 36.2998 95.685C36.2998 107.195 45.6302 116.525 57.1398 116.525Z" stroke="#FBFBFB" stroke-linecap="round" stroke-linejoin="round"/>
<path d="M57.1399 109.665C64.8609 109.665 71.1199 103.406 71.1199 95.6848C71.1199 87.9639 64.8609 81.7048 57.1399 81.7048C49.419 81.7048 43.1599 87.9639 43.1599 95.6848C43.1599 103.406 49.419 109.665 57.1399 109.665Z" stroke="#FBFBFB" stroke-linecap="round" stroke-linejoin="round"/>
<path d="M57.1399 103.155C61.2655 103.155 64.6099 99.8104 64.6099 95.6848C64.6099 91.5593 61.2655 88.2148 57.1399 88.2148C53.0144 88.2148 49.6699 91.5593 49.6699 95.6848C49.6699 99.8104 53.0144 103.155 57.1399 103.155Z" stroke="#FBFBFB" stroke-linecap="round" stroke-linejoin="round"/>
<path d="M39.71 65.2549L47.33 76.5449" stroke="#FBFBFB" stroke-linecap="round" stroke-linejoin="round"/>
<path d="M78.1799 69.2849L69.3699 78.0949" stroke="#FBFBFB" stroke-linecap="round" stroke-linejoin="round"/>
<path d="M29.0598 11.9651V7.29506C29.0598 6.12506 30.5198 5.18506 32.3198 5.18506H61.2398" stroke="#FBFBFB" stroke-linecap="round" stroke-linejoin="round"/>
<path d="M59.1699 17.615C60.6832 17.615 61.9099 16.3883 61.9099 14.875C61.9099 13.3617 60.6832 12.135 59.1699 12.135C57.6567 12.135 56.4299 13.3617 56.4299 14.875C56.4299 16.3883 57.6567 17.615 59.1699 17.615Z" stroke="#FBFBFB" stroke-linecap="round" stroke-linejoin="round"/>
<path d="M41.47 14.925H55.87" stroke="#FBFBFB" stroke-linecap="round" stroke-linejoin="round"/>
<path d="M18.8898 87.6249C20.8505 87.6249 22.4398 86.0355 22.4398 84.0749C22.4398 82.1143 20.8505 80.5249 18.8898 80.5249C16.9292 80.5249 15.3398 82.1143 15.3398 84.0749C15.3398 86.0355 16.9292 87.6249 18.8898 87.6249Z" stroke="#FBFBFB" stroke-linecap="round" stroke-linejoin="round"/>
<path d="M19.0298 65.615V80.435" stroke="#FBFBFB" stroke-linecap="round" stroke-linejoin="round"/>
<path d="M103.17 75.625V84.155L96.3899 90.935" stroke="#FBFBFB" stroke-linecap="round" stroke-linejoin="round"/>
<path d="M93.28 95.975C95.1135 95.975 96.6 94.4885 96.6 92.655C96.6 90.8214 95.1135 89.335 93.28 89.335C91.4464 89.335 89.96 90.8214 89.96 92.655C89.96 94.4885 91.4464 95.975 93.28 95.975Z" stroke="#FBFBFB" stroke-linecap="round" stroke-linejoin="round"/>
</g>
<defs>
<clipPath id="clip0_564_2180">
<rect width="123.11" height="116.85" fill="white" transform="translate(0.889893 0.574951)"/>
</clipPath>
</defs>
</svg>
