<svg width="119" height="121" viewBox="0 0 119 121" fill="none" xmlns="http://www.w3.org/2000/svg">
<path d="M60.2015 119.794L115.953 93.0394C117.127 92.475 117.865 91.3871 117.865 90.1966V4.23098C117.865 1.79359 114.939 0.233653 112.524 1.38821L60.2015 26.3985L59.9452 26.5216L59.6889 26.3985L6.42809 1.39334C3.97289 0.238784 1 1.79359 1 4.23098V90.1966C1 91.382 1.74835 92.475 2.94263 93.0394L59.6889 119.794L59.9452 119.923L60.2015 119.794Z" stroke="#FF71E1" stroke-miterlimit="10"/>
<path d="M59.9452 26.5011V119.733" stroke="#FF71E1" stroke-miterlimit="10"/>
<path d="M44.2248 19.1119V112.564" stroke="#FF71E1" stroke-linecap="round" stroke-linejoin="round"/>
<path d="M48.1562 20.9951V114.155" stroke="#FF71E1" stroke-linecap="round" stroke-linejoin="round"/>
<path d="M52.0876 22.8065V116.233" stroke="#FF71E1" stroke-linecap="round" stroke-linejoin="round"/>
<path d="M56.0139 24.6897V117.875" stroke="#FF71E1" stroke-linecap="round" stroke-linejoin="round"/>
<path d="M28.5095 11.7689V105.026" stroke="#FF71E1" stroke-linecap="round" stroke-linejoin="round"/>
<path d="M32.4357 13.6778V106.863" stroke="#FF71E1" stroke-linecap="round" stroke-linejoin="round"/>
<path d="M36.3671 15.6329V108.7" stroke="#FF71E1" stroke-linecap="round" stroke-linejoin="round"/>
<path d="M40.2985 17.3006V110.63" stroke="#FF71E1" stroke-linecap="round" stroke-linejoin="round"/>
<path d="M12.7891 4.40546V97.5909" stroke="#FF71E1" stroke-linecap="round" stroke-linejoin="round"/>
<path d="M16.7205 6.2887V99.428" stroke="#FF71E1" stroke-linecap="round" stroke-linejoin="round"/>
<path d="M20.6467 8.17188V101.357" stroke="#FF71E1" stroke-linecap="round" stroke-linejoin="round"/>
<path d="M24.5781 9.91138V103.097" stroke="#FF71E1" stroke-linecap="round" stroke-linejoin="round"/>
<path d="M8.85767 2.79932V95.6769" stroke="#FF71E1" stroke-linecap="round" stroke-linejoin="round"/>
<path d="M4.84424 1.25995L4.93137 93.7989" stroke="#FF71E1" stroke-linecap="round" stroke-linejoin="round"/>
<path d="M75.7374 19.1119V112.564" stroke="#FF71E1" stroke-linecap="round" stroke-linejoin="round"/>
<path d="M71.9598 20.9951V114.155" stroke="#FF71E1" stroke-linecap="round" stroke-linejoin="round"/>
<path d="M68.1873 22.8065V116.233" stroke="#FF71E1" stroke-linecap="round" stroke-linejoin="round"/>
<path d="M64.4097 24.6897V117.875" stroke="#FF71E1" stroke-linecap="round" stroke-linejoin="round"/>
<path d="M90.8428 11.7689V105.026" stroke="#FF71E1" stroke-linecap="round" stroke-linejoin="round"/>
<path d="M87.0652 13.6778V106.863" stroke="#FF71E1" stroke-linecap="round" stroke-linejoin="round"/>
<path d="M83.2875 15.6329V108.7" stroke="#FF71E1" stroke-linecap="round" stroke-linejoin="round"/>
<path d="M79.515 17.3006V110.63" stroke="#FF71E1" stroke-linecap="round" stroke-linejoin="round"/>
<path d="M105.948 4.40546V97.5909" stroke="#FF71E1" stroke-linecap="round" stroke-linejoin="round"/>
<path d="M102.171 6.2887V99.428" stroke="#FF71E1" stroke-linecap="round" stroke-linejoin="round"/>
<path d="M98.3929 8.17188V101.357" stroke="#FF71E1" stroke-linecap="round" stroke-linejoin="round"/>
<path d="M94.6204 9.91138V103.097" stroke="#FF71E1" stroke-linecap="round" stroke-linejoin="round"/>
<path d="M109.726 2.79932V95.6769" stroke="#FF71E1" stroke-linecap="round" stroke-linejoin="round"/>
<path d="M113.58 1.25995L113.498 93.7989" stroke="#FF71E1" stroke-linecap="round" stroke-linejoin="round"/>
</svg>
