<svg width="54" height="13" viewBox="0 0 54 13" fill="none" xmlns="http://www.w3.org/2000/svg">
<path d="M28.603 12.0856H27.764V1.86661C27.7643 1.71852 27.8233 1.5766 27.9281 1.47198C28.0329 1.36737 28.1749 1.30859 28.323 1.30859H28.603V12.0856Z" fill="#00E482"/>
<path d="M36.677 4.40661H36.958C37.1062 4.40661 37.2484 4.46551 37.3532 4.57034C37.4581 4.67517 37.517 4.81735 37.517 4.9656V12.0846H36.677V10.4356C36.3713 11.0386 35.9006 11.5424 35.3198 11.8883C34.7389 12.2343 34.0718 12.4081 33.396 12.3896C32.3262 12.3456 31.315 11.8897 30.5736 11.1173C29.8323 10.3449 29.4183 9.31574 29.4183 8.24511C29.4183 7.17449 29.8323 6.14533 30.5736 5.37289C31.315 4.60046 32.3262 4.14459 33.396 4.10061C34.0737 4.08179 34.7426 4.25715 35.324 4.60602C35.9053 4.95488 36.3748 5.46271 36.677 6.06961V4.40661ZM36.677 8.2536C36.6984 7.81976 36.6313 7.3861 36.4798 6.97903C36.3282 6.57196 36.0954 6.20001 35.7954 5.88583C35.4955 5.57166 35.1347 5.32185 34.735 5.15161C34.3354 4.98137 33.9053 4.89425 33.471 4.8956C32.6068 4.93506 31.791 5.30615 31.1934 5.93167C30.5958 6.55719 30.2623 7.38901 30.2623 8.25412C30.2623 9.11922 30.5958 9.95102 31.1934 10.5765C31.791 11.2021 32.6068 11.5731 33.471 11.6126C33.9053 11.614 34.3354 11.5268 34.735 11.3566C35.1347 11.1864 35.4955 10.9365 35.7954 10.6224C36.0954 10.3082 36.3282 9.93624 36.4798 9.52917C36.6313 9.1221 36.6984 8.68845 36.677 8.25461" fill="#00E482"/>
<path d="M39.73 1.30759V6.02557C40.0347 5.43046 40.5019 4.9339 41.0772 4.59338C41.6526 4.25286 42.3127 4.08235 42.981 4.10159C44.0507 4.14556 45.062 4.60144 45.8034 5.37387C46.5447 6.14631 46.9586 7.17547 46.9586 8.24609C46.9586 9.31672 46.5447 10.3459 45.8034 11.1183C45.062 11.8908 44.0507 12.3466 42.981 12.3906C42.3074 12.4071 41.6427 12.2342 41.0625 11.8916C40.4823 11.549 40.0099 11.0504 39.699 10.4526V12.0856H38.874V1.86658C38.874 1.79317 38.8885 1.7205 38.9166 1.65268C38.9447 1.58486 38.9858 1.52322 39.0378 1.47131C39.0897 1.41941 39.1513 1.37822 39.2191 1.35013C39.2869 1.32204 39.3596 1.30759 39.433 1.30759H39.73ZM42.905 4.9256C42.2438 4.90249 41.5906 5.07738 41.0294 5.42786C40.4682 5.77833 40.0244 6.28841 39.755 6.89273C39.4855 7.49705 39.4027 8.16808 39.517 8.81979C39.6314 9.47151 39.9378 10.0742 40.3969 10.5507C40.8561 11.0271 41.447 11.3556 42.094 11.494C42.7411 11.6325 43.4147 11.5745 44.0286 11.3276C44.6424 11.0807 45.1686 10.6562 45.5396 10.1083C45.9107 9.56044 46.1096 8.91426 46.111 8.25259C46.1338 7.81992 46.0674 7.38717 45.916 6.98123C45.7645 6.57529 45.5312 6.20482 45.2306 5.89282C44.9299 5.58083 44.5684 5.33396 44.1683 5.16757C43.7682 5.00118 43.3383 4.91883 42.905 4.9256Z" fill="#00E482"/>
<path d="M47.317 9.59659H48.142C48.1647 9.89412 48.2477 10.1839 48.3859 10.4484C48.5241 10.7129 48.7147 10.9464 48.946 11.1349C49.1773 11.3234 49.4446 11.4629 49.7315 11.5448C50.0184 11.6267 50.319 11.6495 50.615 11.6116C51.928 11.6116 52.874 10.9246 52.874 10.0396C52.874 7.90258 47.516 9.27659 47.516 6.39059C47.516 5.07859 48.752 4.10059 50.385 4.10059C52.202 4.10059 53.53 5.18457 53.53 6.68057L52.69 6.66559C52.69 5.62759 51.714 4.89459 50.39 4.89459C49.246 4.89459 48.344 5.53457 48.344 6.37457C48.344 8.45057 53.702 7.16858 53.702 9.97458C53.702 11.3626 52.402 12.3856 50.619 12.3856C48.696 12.3856 47.319 11.2106 47.319 9.59259" fill="#00E482"/>
<path d="M2.597 12.0896H0.0629883V2.81058C0.0629882 2.42353 0.216678 2.05234 0.490265 1.77856C0.763852 1.50479 1.13495 1.35085 1.52199 1.35059H2.597V12.0896Z" fill="#00E482"/>
<path d="M21.133 10.2186L23.542 2.39059C23.6349 2.08936 23.8218 1.82578 24.0754 1.63846C24.3289 1.45113 24.6358 1.34989 24.951 1.34958H26.499L23.06 12.0886H19.199L15.744 1.34958H17.307C17.6188 1.34994 17.9222 1.44999 18.173 1.63513C18.4238 1.82027 18.6088 2.08077 18.701 2.37857L21.133 10.2186Z" fill="#00E482"/>
<path d="M9.86593 0.967587C8.7378 1.00548 7.64579 1.37463 6.72606 2.02902C5.80632 2.68341 5.09957 3.59408 4.69395 4.64746C4.28833 5.70083 4.20177 6.8503 4.44508 7.95254C4.68839 9.05478 5.2508 10.061 6.06216 10.8458C6.87353 11.6305 7.89795 12.159 9.00769 12.3654C10.1174 12.5718 11.2634 12.447 12.3026 12.0064C13.3419 11.5659 14.2285 10.8292 14.8518 9.88815C15.4752 8.9471 15.8077 7.84337 15.8079 6.7146C15.8341 5.93608 15.6968 5.1607 15.4049 4.43853C15.1129 3.71637 14.6727 3.06345 14.1128 2.52191C13.5529 1.98037 12.8857 1.56225 12.1542 1.29452C11.4227 1.0268 10.6431 0.915421 9.86593 0.967587ZM9.86593 10.2886C9.40178 10.2971 8.94093 10.2091 8.51251 10.0303C8.08409 9.85149 7.69744 9.58571 7.37703 9.24978C7.05661 8.91386 6.8094 8.51512 6.65103 8.07873C6.49265 7.64235 6.42656 7.17783 6.45694 6.7146C6.44969 6.1038 6.58314 5.49954 6.84694 4.94861C6.84632 4.947 6.84632 4.94521 6.84694 4.9436C6.85202 4.9313 6.85839 4.91956 6.86593 4.9086C6.86897 4.89643 6.8748 4.88514 6.88295 4.87561C6.89295 4.85461 6.90994 4.82359 6.92894 4.79059C6.93994 4.77459 6.94794 4.75858 6.95894 4.73858C6.96994 4.71858 6.99094 4.6866 7.01094 4.6596C7.24453 4.30143 7.54895 3.99485 7.90545 3.75873C8.26196 3.5226 8.66301 3.36192 9.08394 3.28659L9.14193 3.27859C9.15938 3.27773 9.17675 3.27571 9.19394 3.27258C9.56644 3.21837 9.94665 3.26386 10.2959 3.40439C10.6451 3.54491 10.9508 3.77548 11.1819 4.0726C11.1869 4.0846 11.1919 4.0916 11.1979 4.1026C11.2229 4.14404 11.2449 4.18714 11.2639 4.2316C11.2749 4.2536 11.2829 4.27458 11.2939 4.29458C11.5191 4.96242 11.5605 5.67853 11.4138 6.36786C11.267 7.05718 10.9376 7.69435 10.4599 8.21258C10.4599 8.21258 12.8599 6.85259 12.7649 4.73959C13.1094 5.34187 13.2853 6.02586 13.2739 6.7196C13.3054 7.18317 13.24 7.64821 13.082 8.08514C12.924 8.52207 12.6767 8.92131 12.3559 9.25747C12.0352 9.59364 11.648 9.85937 11.219 10.0377C10.7899 10.2161 10.3285 10.3033 9.86393 10.2936" fill="#00E482"/>
<path d="M28.603 12.0856H27.764V1.86661C27.7643 1.71852 27.8233 1.5766 27.9281 1.47198C28.0329 1.36737 28.1749 1.30859 28.323 1.30859H28.603V12.0856Z" fill="#00E482"/>
<path d="M36.677 4.40661H36.958C37.1062 4.40661 37.2484 4.46551 37.3532 4.57034C37.4581 4.67517 37.517 4.81735 37.517 4.9656V12.0846H36.677V10.4356C36.3713 11.0386 35.9006 11.5424 35.3198 11.8883C34.7389 12.2343 34.0718 12.4081 33.396 12.3896C32.3262 12.3456 31.315 11.8897 30.5736 11.1173C29.8323 10.3449 29.4183 9.31574 29.4183 8.24511C29.4183 7.17449 29.8323 6.14533 30.5736 5.37289C31.315 4.60046 32.3262 4.14459 33.396 4.10061C34.0737 4.08179 34.7426 4.25715 35.324 4.60602C35.9053 4.95488 36.3748 5.46271 36.677 6.06961V4.40661ZM36.677 8.2536C36.6984 7.81976 36.6313 7.3861 36.4798 6.97903C36.3282 6.57196 36.0954 6.20001 35.7954 5.88583C35.4955 5.57166 35.1347 5.32185 34.735 5.15161C34.3354 4.98137 33.9053 4.89425 33.471 4.8956C32.6068 4.93506 31.791 5.30615 31.1934 5.93167C30.5958 6.55719 30.2623 7.38901 30.2623 8.25412C30.2623 9.11922 30.5958 9.95102 31.1934 10.5765C31.791 11.2021 32.6068 11.5731 33.471 11.6126C33.9053 11.614 34.3354 11.5268 34.735 11.3566C35.1347 11.1864 35.4955 10.9365 35.7954 10.6224C36.0954 10.3082 36.3282 9.93624 36.4798 9.52917C36.6313 9.1221 36.6984 8.68845 36.677 8.25461" fill="#00E482"/>
<path d="M39.73 1.30759V6.02557C40.0347 5.43046 40.5019 4.9339 41.0772 4.59338C41.6526 4.25286 42.3127 4.08235 42.981 4.10159C44.0507 4.14556 45.062 4.60144 45.8034 5.37387C46.5447 6.14631 46.9586 7.17547 46.9586 8.24609C46.9586 9.31672 46.5447 10.3459 45.8034 11.1183C45.062 11.8908 44.0507 12.3466 42.981 12.3906C42.3074 12.4071 41.6427 12.2342 41.0625 11.8916C40.4823 11.549 40.0099 11.0504 39.699 10.4526V12.0856H38.874V1.86658C38.874 1.79317 38.8885 1.7205 38.9166 1.65268C38.9447 1.58486 38.9858 1.52322 39.0378 1.47131C39.0897 1.41941 39.1513 1.37822 39.2191 1.35013C39.2869 1.32204 39.3596 1.30759 39.433 1.30759H39.73ZM42.905 4.9256C42.2438 4.90249 41.5906 5.07738 41.0294 5.42786C40.4682 5.77833 40.0244 6.28841 39.755 6.89273C39.4855 7.49705 39.4027 8.16808 39.517 8.81979C39.6314 9.47151 39.9378 10.0742 40.3969 10.5507C40.8561 11.0271 41.447 11.3556 42.094 11.494C42.7411 11.6325 43.4147 11.5745 44.0286 11.3276C44.6424 11.0807 45.1686 10.6562 45.5396 10.1083C45.9107 9.56044 46.1096 8.91426 46.111 8.25259C46.1338 7.81992 46.0674 7.38717 45.916 6.98123C45.7645 6.57529 45.5312 6.20482 45.2306 5.89282C44.9299 5.58083 44.5684 5.33396 44.1683 5.16757C43.7682 5.00118 43.3383 4.91883 42.905 4.9256Z" fill="#00E482"/>
<path d="M47.317 9.59659H48.142C48.1647 9.89412 48.2477 10.1839 48.3859 10.4484C48.5241 10.7129 48.7147 10.9464 48.946 11.1349C49.1773 11.3234 49.4446 11.4629 49.7315 11.5448C50.0184 11.6267 50.319 11.6495 50.615 11.6116C51.928 11.6116 52.874 10.9246 52.874 10.0396C52.874 7.90258 47.516 9.27659 47.516 6.39059C47.516 5.07859 48.752 4.10059 50.385 4.10059C52.202 4.10059 53.53 5.18457 53.53 6.68057L52.69 6.66559C52.69 5.62759 51.714 4.89459 50.39 4.89459C49.246 4.89459 48.344 5.53457 48.344 6.37457C48.344 8.45057 53.702 7.16858 53.702 9.97458C53.702 11.3626 52.402 12.3856 50.619 12.3856C48.696 12.3856 47.319 11.2106 47.319 9.59259" fill="#00E482"/>
<path d="M2.597 12.0896H0.0629883V2.81058C0.0629882 2.42353 0.216678 2.05234 0.490265 1.77856C0.763852 1.50479 1.13495 1.35085 1.52199 1.35059H2.597V12.0896Z" fill="#00E482"/>
<path d="M21.133 10.2186L23.542 2.39059C23.6349 2.08936 23.8218 1.82578 24.0754 1.63846C24.3289 1.45113 24.6358 1.34989 24.951 1.34958H26.499L23.06 12.0886H19.199L15.744 1.34958H17.307C17.6188 1.34994 17.9222 1.44999 18.173 1.63513C18.4238 1.82027 18.6088 2.08077 18.701 2.37857L21.133 10.2186Z" fill="#00E482"/>
<path d="M9.86593 0.967587C8.7378 1.00548 7.64579 1.37463 6.72606 2.02902C5.80632 2.68341 5.09957 3.59408 4.69395 4.64746C4.28833 5.70083 4.20177 6.8503 4.44508 7.95254C4.68839 9.05478 5.2508 10.061 6.06216 10.8458C6.87353 11.6305 7.89795 12.159 9.00769 12.3654C10.1174 12.5718 11.2634 12.447 12.3026 12.0064C13.3419 11.5659 14.2285 10.8292 14.8518 9.88815C15.4752 8.9471 15.8077 7.84337 15.8079 6.7146C15.8341 5.93608 15.6968 5.1607 15.4049 4.43853C15.1129 3.71637 14.6727 3.06345 14.1128 2.52191C13.5529 1.98037 12.8857 1.56225 12.1542 1.29452C11.4227 1.0268 10.6431 0.915421 9.86593 0.967587ZM9.86593 10.2886C9.40178 10.2971 8.94093 10.2091 8.51251 10.0303C8.08409 9.85149 7.69744 9.58571 7.37703 9.24978C7.05661 8.91386 6.8094 8.51512 6.65103 8.07873C6.49265 7.64235 6.42656 7.17783 6.45694 6.7146C6.44969 6.1038 6.58314 5.49954 6.84694 4.94861C6.84632 4.947 6.84632 4.94521 6.84694 4.9436C6.85202 4.9313 6.85839 4.91956 6.86593 4.9086C6.86897 4.89643 6.8748 4.88514 6.88295 4.87561C6.89295 4.85461 6.90994 4.82359 6.92894 4.79059C6.93994 4.77459 6.94794 4.75858 6.95894 4.73858C6.96994 4.71858 6.99094 4.6866 7.01094 4.6596C7.24453 4.30143 7.54895 3.99485 7.90545 3.75873C8.26196 3.5226 8.66301 3.36192 9.08394 3.28659L9.14193 3.27859C9.15938 3.27773 9.17675 3.27571 9.19394 3.27258C9.56644 3.21837 9.94665 3.26386 10.2959 3.40439C10.6451 3.54491 10.9508 3.77548 11.1819 4.0726C11.1869 4.0846 11.1919 4.0916 11.1979 4.1026C11.2229 4.14404 11.2449 4.18714 11.2639 4.2316C11.2749 4.2536 11.2829 4.27458 11.2939 4.29458C11.5191 4.96242 11.5605 5.67853 11.4138 6.36786C11.267 7.05718 10.9376 7.69435 10.4599 8.21258C10.4599 8.21258 12.8599 6.85259 12.7649 4.73959C13.1094 5.34187 13.2853 6.02586 13.2739 6.7196C13.3054 7.18317 13.24 7.64821 13.082 8.08514C12.924 8.52207 12.6767 8.92131 12.3559 9.25747C12.0352 9.59364 11.648 9.85937 11.219 10.0377C10.7899 10.2161 10.3285 10.3033 9.86393 10.2936" fill="#00E482"/>
</svg>
