<svg width="84" height="10" viewBox="0 0 84 10" fill="none" xmlns="http://www.w3.org/2000/svg">
<g clip-path="url(#clip0_750_107)">
<path d="M83.9999 8.24228C83.6988 9.22917 82.9892 9.75209 81.9988 9.88265C80.9073 10.0272 79.8425 9.9746 79.0065 9.10563C78.69 8.77713 78.4843 8.32229 78.4717 7.90957C78.9455 7.82113 79.4235 7.73199 79.9141 7.64003C79.9527 7.73339 79.9843 7.80498 80.0124 7.87868C80.3065 8.65289 81.3348 9.00736 82.0142 8.53357C82.1855 8.41424 82.3357 8.1405 82.3329 7.94045C82.3308 7.79095 82.0907 7.57335 81.9132 7.51299C81.4071 7.34172 80.8778 7.23924 80.3598 7.10167C80.1801 7.05394 80.0047 6.98866 79.8306 6.92268C79.1455 6.66227 78.6858 6.22568 78.6437 5.44796C78.6015 4.66743 78.8942 4.04273 79.5814 3.67493C80.562 3.1499 81.5987 3.12182 82.6179 3.57034C83.2643 3.85462 83.6321 4.39158 83.8069 5.10753C83.3535 5.2044 82.9253 5.30828 82.4908 5.37566C82.4242 5.38619 82.3041 5.24441 82.2543 5.14965C81.9342 4.53969 81.2302 4.31086 80.6167 4.62883C80.383 4.75026 80.1752 4.93767 80.2531 5.19527C80.3051 5.36584 80.5107 5.55606 80.6883 5.61221C81.2871 5.80313 81.904 5.93439 82.5126 6.09442C83.2292 6.28324 83.7831 6.65736 84.0006 7.407V8.24298L83.9999 8.24228Z" fill="white"/>
<path d="M5.6146 5.74628C6.02943 5.97159 6.28142 6.38502 6.42882 6.86092C6.72011 7.80008 6.99386 8.74415 7.29428 9.74929C6.70397 9.74929 6.15156 9.75771 5.60056 9.73806C5.53528 9.73595 5.44825 9.58293 5.41877 9.48607C5.21521 8.82136 5.03201 8.15103 4.82705 7.48632C4.5505 6.59068 4.24798 6.37449 3.31092 6.37309C2.77606 6.37309 2.24121 6.37309 1.66143 6.37309V9.72472H0C0 6.8553 0 3.99431 0 1.13261C0.0175478 1.11857 0.0357975 1.0919 0.0540473 1.0919C1.653 1.10453 3.25828 1.03995 4.84951 1.15437C6.69625 1.28703 7.68945 3.42295 6.62395 4.86468C6.36565 5.21423 5.95643 5.45428 5.6139 5.74628H5.6146ZM1.6881 2.52871V5.02612C2.22787 5.02612 2.73886 5.03243 3.25056 5.02401C3.64573 5.01699 4.04723 5.03103 4.43328 4.96505C5.0636 4.85625 5.37174 4.38808 5.34296 3.68406C5.31488 3.0025 4.97165 2.56942 4.32308 2.53854C3.45271 2.49713 2.57883 2.52801 1.6881 2.52801V2.52871Z" fill="white"/>
<path d="M71.2484 9.7542V0.858154H72.8284V4.30033C73.0481 4.10169 73.199 3.94657 73.3696 3.81531C74.5909 2.87686 76.4166 3.17727 77.334 4.46388C78.184 5.65573 78.1854 7.57686 77.3361 8.7652C76.3681 10.1206 74.4309 10.3445 73.1772 9.24531C73.0825 9.16178 72.9919 9.07334 72.8277 8.92173C72.8277 9.12107 72.8115 9.25233 72.8305 9.37937C72.8789 9.69874 72.7371 9.77876 72.4367 9.75981C72.0542 9.73524 71.6695 9.7542 71.2477 9.7542H71.2484ZM76.2902 6.61173C76.2902 6.51908 76.2958 6.42573 76.2895 6.33378C76.2256 5.40936 75.5708 4.73061 74.7067 4.6913C73.7282 4.64708 73.0137 5.21282 72.8649 6.17093C72.8277 6.40888 72.8319 6.65736 72.8473 6.89882C72.921 8.07382 73.9486 8.79047 75.0914 8.4711C75.8677 8.25421 76.2993 7.5888 76.2909 6.61243L76.2902 6.61173Z" fill="white"/>
<path d="M56.8101 3.47C55.9404 4.34809 55.1023 5.1953 54.2326 6.0741C55.1199 7.28139 56.0022 8.48166 56.9357 9.75212C56.278 9.75212 55.7003 9.76265 55.1234 9.74159C55.0272 9.73808 54.9163 9.60823 54.8461 9.51277C54.2804 8.74768 53.7224 7.97628 53.1538 7.19575C52.7474 7.45195 52.4786 7.73412 52.5347 8.25845C52.586 8.73715 52.5459 9.22569 52.5459 9.73176H50.9856V0.858887H52.5593V5.68313C52.9187 5.3406 53.2015 5.07387 53.4816 4.80434C53.8761 4.42531 54.2579 4.03223 54.6678 3.67075C54.7921 3.56125 54.9886 3.48615 55.1557 3.47913C55.6996 3.45526 56.245 3.47 56.8101 3.47Z" fill="white"/>
<path d="M39.7655 9.93535C37.7574 9.92412 36.3858 8.5582 36.4013 6.58512C36.416 4.62749 37.8374 3.2742 39.8673 3.28473C41.8263 3.29456 43.2028 4.68785 43.188 6.64479C43.1733 8.61225 41.7849 9.94658 39.7662 9.93535H39.7655ZM41.5189 6.48826C41.5175 6.46439 41.5147 6.33665 41.5006 6.2103C41.3982 5.31255 40.7405 4.67943 39.8729 4.64153C39.0082 4.60292 38.2901 5.14339 38.1392 6.03342C38.0676 6.45527 38.0697 6.92134 38.1729 7.33476C38.4733 8.53995 39.9663 8.99339 40.9033 8.1911C41.3912 7.77346 41.5315 7.20772 41.5189 6.48826Z" fill="white"/>
<path d="M10.9899 9.93538C8.97119 9.92766 7.61018 8.5835 7.61439 6.602C7.6186 4.6212 9.03295 3.27212 11.091 3.28476C13.0282 3.29739 14.4068 4.69279 14.3942 6.62937C14.3815 8.60596 13.0044 9.9438 10.9906 9.93538H10.9899ZM12.7594 6.62586C12.7278 6.40827 12.7138 6.18717 12.6625 5.97449C12.4688 5.16588 11.8455 4.6577 11.046 4.64085C10.2374 4.62401 9.55799 5.08657 9.38672 5.90008C9.28775 6.37036 9.29126 6.8975 9.39444 7.36778C9.58185 8.22552 10.4213 8.70844 11.2959 8.56103C12.1958 8.40942 12.7362 7.68645 12.7594 6.62586Z" fill="white"/>
<path d="M18.3543 9.9353C16.3279 9.9353 14.9451 8.59815 14.9402 6.6342C14.9353 4.66464 16.3391 3.28818 18.3557 3.28467C20.3302 3.28117 21.7214 4.64779 21.727 6.5956C21.7326 8.57218 20.3562 9.9353 18.3543 9.9353ZM20.0585 6.51347C20.0564 6.47557 20.0536 6.34782 20.0403 6.22148C19.9462 5.32584 19.2892 4.68569 18.4217 4.64217C17.5576 4.59866 16.8319 5.13772 16.6795 6.02354C16.6065 6.44539 16.6072 6.91146 16.7076 7.32488C17.001 8.53007 18.4912 8.99333 19.4338 8.19806C19.9252 7.78394 20.0684 7.21889 20.0585 6.51347Z" fill="white"/>
<path d="M66.0942 5.58614C65.5678 5.52367 65.0512 5.46261 64.5332 5.40154C64.7339 4.27989 65.5348 3.51761 66.7344 3.3302C67.5072 3.20947 68.273 3.26071 68.9854 3.63413C69.6157 3.96473 70.072 4.47642 70.0965 5.17974C70.1492 6.68464 70.1127 8.19305 70.1127 9.72673H68.5727V8.51593C68.4737 8.64578 68.4379 8.68579 68.4098 8.73001C67.7458 9.77727 66.6214 10.1577 65.4646 9.72111C64.8455 9.48738 64.4609 9.04868 64.3696 8.3938C64.2721 7.6968 64.4545 7.06718 65.0898 6.7078C65.5362 6.45511 66.05 6.3035 66.5512 6.17014C67.0109 6.0473 67.4945 6.01712 67.9648 5.93149C68.2028 5.88797 68.4751 5.85217 68.5397 5.55807C68.6064 5.25203 68.4583 5.019 68.2168 4.84001C67.5493 4.34446 66.5083 4.62663 66.1841 5.38891C66.1574 5.45138 66.1286 5.51244 66.0956 5.58685L66.0942 5.58614ZM68.5256 6.73588C67.8406 6.891 67.1773 7.01173 66.5329 7.19844C66.1286 7.31566 65.9861 7.62169 66.0437 8.00845C66.0914 8.32641 66.3434 8.5419 66.7287 8.59525C67.7788 8.73984 68.6379 7.88 68.5256 6.73658V6.73588Z" fill="white"/>
<path d="M31.6689 5.10963C31.1727 5.21351 30.7186 5.30967 30.2462 5.40864C30.1914 5.30827 30.1423 5.21983 30.0953 5.12998C29.7773 4.52353 29.0473 4.28909 28.4598 4.64988C28.292 4.75306 28.1545 4.99522 28.1166 5.19456C28.0667 5.45637 28.3145 5.56166 28.5363 5.62132C29.1996 5.80031 29.8728 5.94982 30.5283 6.15337C31.438 6.43624 31.8114 6.89389 31.855 7.69337C31.9027 8.55391 31.4914 9.28812 30.6989 9.62784C29.6776 10.0658 28.6276 10.0806 27.6035 9.63626C26.8686 9.3176 26.4467 8.72729 26.2909 7.91728C26.7928 7.82322 27.2813 7.73127 27.7663 7.64073C28.1847 8.58761 28.7904 8.92452 29.6243 8.65288C29.811 8.59182 30.0019 8.45635 30.1226 8.30193C30.3367 8.02959 30.2349 7.67933 29.9057 7.56422C29.4895 7.41822 29.0536 7.33118 28.6297 7.20694C28.2724 7.10236 27.9151 6.99426 27.5663 6.86511C26.1049 6.32183 26.2621 4.47089 27.2111 3.83917C27.5684 3.60122 28.0008 3.41662 28.4226 3.34291C29.2768 3.19341 30.1261 3.24324 30.8603 3.80126C31.2857 4.12485 31.53 4.56003 31.6682 5.10963H31.6689Z" fill="white"/>
<path d="M50.1173 7.65342C49.9825 8.32164 49.6884 8.86 49.1809 9.26711C47.8824 10.3073 45.6489 10.1319 44.5567 8.87404C43.5986 7.77134 43.487 6.49526 44.0373 5.19251C44.5687 3.93468 45.611 3.33876 46.965 3.28892C48.166 3.2447 49.1788 3.6111 49.7951 4.7131C49.939 4.97 50.0113 5.26551 50.1306 5.57997C49.5782 5.65718 49.0855 5.72596 48.6075 5.79265C48.5731 5.75474 48.552 5.74 48.5429 5.72035C48.1477 4.87033 47.7273 4.60501 46.8969 4.68573C46.195 4.75381 45.6482 5.25007 45.465 6.01656C45.3352 6.56054 45.3632 7.10241 45.6215 7.6106C45.9269 8.21073 46.4175 8.52449 47.1054 8.53572C47.782 8.54695 48.2313 8.2353 48.5043 7.63236C48.5373 7.55936 48.6468 7.4646 48.7121 7.47092C49.1732 7.51724 49.6316 7.58744 50.118 7.65342H50.1173Z" fill="white"/>
<path d="M58.0257 1.09741H59.664V8.28149H63.8544V9.72532C63.7702 9.73445 63.6817 9.7527 63.5933 9.7527C61.8406 9.7541 60.0872 9.74919 58.3345 9.75972C58.0741 9.76112 57.9955 9.68882 57.9962 9.42701C58.0053 6.75693 58.0011 4.08756 58.0025 1.41748C58.0025 1.31641 58.0166 1.21463 58.0257 1.09811V1.09741Z" fill="white"/>
<path d="M33.0888 4.77686H32.1532V3.47973H33.0776V1.8562H34.7299V3.46358H35.987V4.76282H34.732C34.732 5.10816 34.732 5.40577 34.732 5.70409C34.732 6.40038 34.7306 7.09738 34.732 7.79368C34.7341 8.38469 34.89 8.53701 35.4824 8.5335C35.6333 8.53279 35.7842 8.5335 35.9899 8.5335C35.9899 8.90762 35.9997 9.28525 35.98 9.66077C35.9765 9.72184 35.8403 9.82361 35.7631 9.82572C35.2655 9.83835 34.7538 9.89661 34.2709 9.80957C33.5079 9.672 33.1155 9.07678 33.0959 8.13692C33.0755 7.15073 33.0896 6.16314 33.0881 5.17625C33.0881 5.05271 33.0881 4.92847 33.0881 4.77616L33.0888 4.77686Z" fill="white"/>
<path d="M22.0562 4.77335V3.47973H22.987V1.8562H24.6414V3.46288H25.8985V4.76001H24.647C24.647 5.16151 24.647 5.51738 24.647 5.87325C24.647 6.53515 24.6456 7.19706 24.647 7.85826C24.6484 8.36153 24.8098 8.52367 25.3152 8.5342C25.4991 8.53841 25.6837 8.5342 25.9076 8.5342C25.9076 8.9034 25.9203 9.26068 25.8978 9.61585C25.8929 9.69095 25.7609 9.818 25.6844 9.8201C25.1755 9.83484 24.6554 9.88328 24.1585 9.80256C23.5127 9.69797 23.1519 9.22558 23.0635 8.59807C22.9989 8.14113 23.0045 7.67365 22.9989 7.21039C22.9898 6.41161 22.9961 5.61284 22.9961 4.77265H22.0555L22.0562 4.77335Z" fill="white"/>
</g>
<defs>
<clipPath id="clip0_750_107">
<rect width="84" height="9.10451" fill="white" transform="translate(0 0.858154)"/>
</clipPath>
</defs>
</svg>
