<?xml version="1.0" encoding="iso-8859-1"?>
<!-- Generator: Adobe Illustrator 19.0.0, SVG Export Plug-In . SVG Version: 6.00 Build 0)  -->
<svg version="1.1" id="Layer_1" xmlns="http://www.w3.org/2000/svg" xmlns:xlink="http://www.w3.org/1999/xlink" x="0px" y="0px"
	 viewBox="0 0 512 512" style="enable-background:new 0 0 512 512;" xml:space="preserve">
<g>
	<g>
		<path d="M170.667,128H64c-5.888,0-10.667,4.779-10.667,10.667V224c0,5.888,4.779,10.667,10.667,10.667h106.667
			c5.888,0,10.667-4.779,10.667-10.667v-85.333C181.333,132.779,176.555,128,170.667,128z M160,213.333H74.667v-64H160V213.333z"/>
	</g>
</g>
<g>
	<g>
		<path d="M256,85.333h-42.667c-29.397,0-53.333,23.936-53.333,53.333V224c0,29.397,23.936,53.333,53.333,53.333H256
			c29.397,0,53.333-23.936,53.333-53.333v-85.333C309.333,109.269,285.397,85.333,256,85.333z M288,224c0,17.643-14.357,32-32,32
			h-42.667c-17.643,0-32-14.357-32-32v-85.333c0-17.643,14.357-32,32-32H256c17.643,0,32,14.357,32,32V224z"/>
	</g>
</g>
<g>
	<g>
		<path d="M341.333,128h-42.667c-5.888,0-10.667,4.779-10.667,10.667V224c0,5.888,4.779,10.667,10.667,10.667H320
			c17.643,0,32,14.357,32,32v42.667c0,5.888,4.779,10.667,10.667,10.667H448c5.888,0,10.667-4.779,10.667-10.667v-64
			C458.667,180.629,406.037,128,341.333,128z M437.333,298.667h-64v-32c0-29.397-23.936-53.333-53.333-53.333h-10.667v-64h32
			c52.928,0,96,43.072,96,96V298.667z"/>
	</g>
</g>
<g>
	<g>
		<path d="M414.101,367.275c-3.989-5.781-13.547-5.781-17.557,0C389.12,378.048,352,433.067,352,458.667
			C352,488.064,375.936,512,405.333,512s53.333-23.936,53.333-53.333C458.667,433.067,421.547,378.048,414.101,367.275z
			 M405.333,490.667c-17.643,0-32-14.357-32-32c0-11.648,16.64-42.048,32-66.048c15.36,23.979,32,54.379,32,66.048
			C437.333,476.309,422.976,490.667,405.333,490.667z"/>
	</g>
</g>
<g>
	<g>
		<path d="M298.667,0c-7.893,0-40.213,3.755-64,9.749C210.88,3.755,178.56,0,170.667,0c-17.643,0-32,14.357-32,32s14.357,32,32,32
			c7.893,0,40.213-3.755,64-9.749c23.787,5.995,56.107,9.749,64,9.749c17.643,0,32-14.357,32-32C330.667,14.357,316.309,0,298.667,0
			z M298.667,42.667c-6.379,0-39.104-3.819-61.248-9.749c-0.896-0.235-1.835-0.363-2.752-0.363c-0.917,0-1.856,0.128-2.752,0.363
			c-22.144,5.931-54.869,9.749-61.248,9.749C164.779,42.667,160,37.888,160,32s4.779-10.667,10.667-10.667
			c6.379,0,39.104,3.819,61.248,9.749c1.792,0.469,3.712,0.469,5.504,0c22.144-5.931,54.869-9.749,61.248-9.749
			c5.888,0,10.667,4.779,10.667,10.667S304.555,42.667,298.667,42.667z"/>
	</g>
</g>
<g>
	<g>
		<path d="M234.667,32.555c-5.888,0-10.667,4.779-10.667,10.667V96c0,5.888,4.779,10.667,10.667,10.667s10.667-4.779,10.667-10.667
			V43.221C245.333,37.333,240.555,32.555,234.667,32.555z"/>
	</g>
</g>
<g>
</g>
<g>
</g>
<g>
</g>
<g>
</g>
<g>
</g>
<g>
</g>
<g>
</g>
<g>
</g>
<g>
</g>
<g>
</g>
<g>
</g>
<g>
</g>
<g>
</g>
<g>
</g>
<g>
</g>
</svg>
