<svg width="118" height="121" viewBox="0 0 118 121" fill="none" xmlns="http://www.w3.org/2000/svg">
<path d="M59.7181 120.11L115.47 93.3552C116.644 92.7908 117.382 91.7029 117.382 90.5124V4.54677C117.382 2.10937 114.455 0.549441 112.041 1.704L59.7181 26.7142L59.4618 26.8374L59.2055 26.7142L5.94469 1.70913C3.48949 0.554572 0.516602 2.10937 0.516602 4.54677V90.5124C0.516602 91.6978 1.26495 92.7908 2.45923 93.3552L59.2055 120.11L59.4618 120.238L59.7181 120.11Z" stroke="white" stroke-miterlimit="10"/>
<path d="M59.4619 26.8169V120.049" stroke="white" stroke-miterlimit="10"/>
<path d="M43.7415 19.4277V112.88" stroke="white" stroke-linecap="round" stroke-linejoin="round"/>
<path d="M47.6729 21.3109V114.471" stroke="white" stroke-linecap="round" stroke-linejoin="round"/>
<path d="M51.6042 23.1223V116.549" stroke="white" stroke-linecap="round" stroke-linejoin="round"/>
<path d="M55.5305 25.0055V118.191" stroke="white" stroke-linecap="round" stroke-linejoin="round"/>
<path d="M28.0261 12.0847V105.342" stroke="white" stroke-linecap="round" stroke-linejoin="round"/>
<path d="M31.9524 13.9936V107.179" stroke="white" stroke-linecap="round" stroke-linejoin="round"/>
<path d="M35.8838 15.9486V109.016" stroke="white" stroke-linecap="round" stroke-linejoin="round"/>
<path d="M39.8152 17.6164V110.946" stroke="white" stroke-linecap="round" stroke-linejoin="round"/>
<path d="M12.3057 4.72124V97.9067" stroke="white" stroke-linecap="round" stroke-linejoin="round"/>
<path d="M16.2371 6.60446V99.7437" stroke="white" stroke-linecap="round" stroke-linejoin="round"/>
<path d="M20.1633 8.48765V101.673" stroke="white" stroke-linecap="round" stroke-linejoin="round"/>
<path d="M24.0947 10.2272V103.413" stroke="white" stroke-linecap="round" stroke-linejoin="round"/>
<path d="M8.37427 3.11513V95.9927" stroke="white" stroke-linecap="round" stroke-linejoin="round"/>
<path d="M4.36084 1.57573L4.44798 94.1147" stroke="white" stroke-linecap="round" stroke-linejoin="round"/>
<path d="M75.2539 19.4277V112.88" stroke="white" stroke-linecap="round" stroke-linejoin="round"/>
<path d="M71.4763 21.3109V114.471" stroke="white" stroke-linecap="round" stroke-linejoin="round"/>
<path d="M67.7039 23.1223V116.549" stroke="white" stroke-linecap="round" stroke-linejoin="round"/>
<path d="M63.9263 25.0055V118.191" stroke="white" stroke-linecap="round" stroke-linejoin="round"/>
<path d="M90.3594 12.0847V105.342" stroke="white" stroke-linecap="round" stroke-linejoin="round"/>
<path d="M86.5818 13.9936V107.179" stroke="white" stroke-linecap="round" stroke-linejoin="round"/>
<path d="M82.8042 15.9486V109.016" stroke="white" stroke-linecap="round" stroke-linejoin="round"/>
<path d="M79.0317 17.6164V110.946" stroke="white" stroke-linecap="round" stroke-linejoin="round"/>
<path d="M105.465 4.72124V97.9067" stroke="white" stroke-linecap="round" stroke-linejoin="round"/>
<path d="M101.687 6.60446V99.7437" stroke="white" stroke-linecap="round" stroke-linejoin="round"/>
<path d="M97.9094 8.48765V101.673" stroke="white" stroke-linecap="round" stroke-linejoin="round"/>
<path d="M94.137 10.2272V103.413" stroke="white" stroke-linecap="round" stroke-linejoin="round"/>
<path d="M109.242 3.11513V95.9927" stroke="white" stroke-linecap="round" stroke-linejoin="round"/>
<path d="M113.097 1.57573L113.015 94.1147" stroke="white" stroke-linecap="round" stroke-linejoin="round"/>
</svg>
