<svg width="124" height="117" viewBox="0 0 124 117" fill="none" xmlns="http://www.w3.org/2000/svg">
<path d="M28.67 67.23C43.9517 67.23 56.34 54.8417 56.34 39.56C56.34 24.2783 43.9517 11.89 28.67 11.89C13.3883 11.89 1 24.2783 1 39.56C1 54.8417 13.3883 67.23 28.67 67.23Z" stroke="#9878F7" stroke-linecap="round" stroke-linejoin="round"/>
<path d="M28.81 60.4C40.3196 60.4 49.65 51.0696 49.65 39.56C49.65 28.0504 40.3196 18.72 28.81 18.72C17.3004 18.72 7.96997 28.0504 7.96997 39.56C7.96997 51.0696 17.3004 60.4 28.81 60.4Z" stroke="#9878F7" stroke-linecap="round" stroke-linejoin="round"/>
<path d="M28.81 53.54C36.5309 53.54 42.79 47.2809 42.79 39.56C42.79 31.839 36.5309 25.58 28.81 25.58C21.089 25.58 14.83 31.839 14.83 39.56C14.83 47.2809 21.089 53.54 28.81 53.54Z" stroke="#9878F7" stroke-linecap="round" stroke-linejoin="round"/>
<path d="M28.81 47.03C32.9355 47.03 36.28 43.6855 36.28 39.56C36.28 35.4344 32.9355 32.09 28.81 32.09C24.6844 32.09 21.34 35.4344 21.34 39.56C21.34 43.6855 24.6844 47.03 28.81 47.03Z" stroke="#9878F7" stroke-linecap="round" stroke-linejoin="round"/>
<path d="M65.52 9.5C67.8672 9.5 69.77 7.59721 69.77 5.25C69.77 2.90279 67.8672 1 65.52 1C63.1728 1 61.27 2.90279 61.27 5.25C61.27 7.59721 63.1728 9.5 65.52 9.5Z" stroke="#9878F7" stroke-linecap="round" stroke-linejoin="round"/>
<path d="M95.43 75.55C110.712 75.55 123.1 63.1617 123.1 47.88C123.1 32.5982 110.712 20.21 95.43 20.21C80.1483 20.21 67.76 32.5982 67.76 47.88C67.76 63.1617 80.1483 75.55 95.43 75.55Z" stroke="#9878F7" stroke-linecap="round" stroke-linejoin="round"/>
<path d="M95.58 68.72C107.09 68.72 116.42 59.3897 116.42 47.88C116.42 36.3704 107.09 27.04 95.58 27.04C84.0704 27.04 74.74 36.3704 74.74 47.88C74.74 59.3897 84.0704 68.72 95.58 68.72Z" stroke="#9878F7" stroke-linecap="round" stroke-linejoin="round"/>
<path d="M95.58 61.86C103.301 61.86 109.56 55.601 109.56 47.88C109.56 40.1591 103.301 33.9 95.58 33.9C87.859 33.9 81.6 40.1591 81.6 47.88C81.6 55.601 87.859 61.86 95.58 61.86Z" stroke="#9878F7" stroke-linecap="round" stroke-linejoin="round"/>
<path d="M95.58 55.35C99.7056 55.35 103.05 52.0056 103.05 47.88C103.05 43.7545 99.7056 40.41 95.58 40.41C91.4544 40.41 88.11 43.7545 88.11 47.88C88.11 52.0056 91.4544 55.35 95.58 55.35Z" stroke="#9878F7" stroke-linecap="round" stroke-linejoin="round"/>
<path d="M56.75 116.45C68.2596 116.45 77.59 107.12 77.59 95.61C77.59 84.1004 68.2596 74.77 56.75 74.77C45.2404 74.77 35.91 84.1004 35.91 95.61C35.91 107.12 45.2404 116.45 56.75 116.45Z" stroke="#9878F7" stroke-linecap="round" stroke-linejoin="round"/>
<path d="M56.75 109.59C64.471 109.59 70.73 103.331 70.73 95.61C70.73 87.8891 64.471 81.63 56.75 81.63C49.0291 81.63 42.77 87.8891 42.77 95.61C42.77 103.331 49.0291 109.59 56.75 109.59Z" stroke="#9878F7" stroke-linecap="round" stroke-linejoin="round"/>
<path d="M56.75 103.08C60.8756 103.08 64.22 99.7356 64.22 95.61C64.22 91.4844 60.8756 88.14 56.75 88.14C52.6245 88.14 49.28 91.4844 49.28 95.61C49.28 99.7356 52.6245 103.08 56.75 103.08Z" stroke="#9878F7" stroke-linecap="round" stroke-linejoin="round"/>
<path d="M39.3201 65.1801L46.9401 76.4701" stroke="#9878F7" stroke-linecap="round" stroke-linejoin="round"/>
<path d="M77.79 69.21L68.98 78.02" stroke="#9878F7" stroke-linecap="round" stroke-linejoin="round"/>
<path d="M28.67 11.89V7.21999C28.67 6.04999 30.13 5.10999 31.93 5.10999H60.85" stroke="#9878F7" stroke-linecap="round" stroke-linejoin="round"/>
<path d="M58.78 17.5401C60.2933 17.5401 61.52 16.3133 61.52 14.8001C61.52 13.2868 60.2933 12.0601 58.78 12.0601C57.2668 12.0601 56.04 13.2868 56.04 14.8001C56.04 16.3133 57.2668 17.5401 58.78 17.5401Z" stroke="#9878F7" stroke-linecap="round" stroke-linejoin="round"/>
<path d="M41.08 14.85H55.48" stroke="#9878F7" stroke-linecap="round" stroke-linejoin="round"/>
<path d="M18.5 87.55C20.4606 87.55 22.05 85.9606 22.05 84C22.05 82.0393 20.4606 80.45 18.5 80.45C16.5393 80.45 14.95 82.0393 14.95 84C14.95 85.9606 16.5393 87.55 18.5 87.55Z" stroke="#9878F7" stroke-linecap="round" stroke-linejoin="round"/>
<path d="M18.64 65.54V80.36" stroke="#9878F7" stroke-linecap="round" stroke-linejoin="round"/>
<path d="M102.78 75.55V84.08L96 90.86" stroke="#9878F7" stroke-linecap="round" stroke-linejoin="round"/>
<path d="M92.8899 95.9C94.7235 95.9 96.2099 94.4136 96.2099 92.58C96.2099 90.7464 94.7235 89.26 92.8899 89.26C91.0564 89.26 89.5699 90.7464 89.5699 92.58C89.5699 94.4136 91.0564 95.9 92.8899 95.9Z" stroke="#9878F7" stroke-linecap="round" stroke-linejoin="round"/>
</svg>
