<svg width="106" height="129" viewBox="0 0 106 129" fill="none" xmlns="http://www.w3.org/2000/svg">
<path d="M76.1137 107.836C74.7261 109.134 73.084 110.227 71.0746 110.702C69.9627 110.965 68.863 111.29 67.7632 111.59C66.1823 112.015 64.6983 112.57 63.0418 111.48C61.9671 110.769 60.5399 111.098 59.2703 111.398C57.1517 111.901 55.1702 112.84 53.6087 114.297C52.1645 115.636 50.5229 116.228 48.7155 116.71C34.916 120.387 21.0923 123.976 7.36128 127.892C3.54442 128.978 0.0260483 125.775 1.13282 121.72C9.88568 89.6205 18.4486 57.4687 27.1368 25.3452C28.2395 21.2696 31.0834 18.6196 35.1186 17.525C55.7391 11.9302 76.3798 6.41223 97.0164 0.865952C97.7968 0.659174 98.5691 0.420064 99.3534 0.233498C103.154 -0.666907 106.151 2.34634 105.142 6.1025C96.4775 38.3796 87.7972 70.6487 79.1251 102.918C78.6143 104.81 77.5499 106.359 76.1096 107.832L76.1137 107.836ZM54.5176 12.8205C53.2561 13.153 52.217 13.4812 51.1496 13.6923C50.2885 13.8587 49.9041 14.2915 49.6851 15.1406C48.7444 18.828 47.7066 22.4912 46.7457 26.1746C46.2307 28.1517 45.0453 29.4179 43.0601 29.9329C41.2973 30.3951 40.1766 31.5076 39.7023 33.2745C38.2995 38.5145 36.8684 43.7424 35.4898 48.9905C35.0033 50.8343 35.4396 51.2381 37.3155 50.8486C39.2279 50.4469 40.0195 51.3113 39.5087 53.2036C33.7435 74.6165 27.9824 96.0335 22.2253 117.447C21.8239 118.947 21.4346 120.451 21.0211 122.011C21.9588 122.075 22.6423 121.658 23.3822 121.573C24.9507 121.394 25.6346 120.565 26.0481 118.996C31.9635 96.7378 37.9679 74.496 43.9156 52.2461C44.5116 50.0102 45.7578 48.5944 47.9978 47.9458C49.4817 47.5202 50.5092 46.5411 50.939 44.9562C52.3458 39.7283 53.8132 34.5124 55.2363 29.2845C55.8484 27.0405 55.5657 26.7578 53.249 27.2002C51.6723 27.5006 50.8847 26.6887 51.2376 25.0836C51.4648 24.0648 51.7688 23.058 52.0364 22.0472C52.8472 19.0309 53.65 16.0147 54.5095 12.8205L54.5176 12.8205ZM36.3125 118.046C37.299 117.794 38.0592 117.535 38.8354 117.421C40.3838 117.206 41.0797 116.413 41.5014 114.836C49.8575 83.5213 58.2822 52.2266 66.6909 20.9239C67.7734 16.8928 68.8478 12.8537 69.9668 8.67295C68.9398 8.94056 68.0826 9.25654 67.1932 9.37852C65.7863 9.56557 65.1995 10.2896 64.8266 11.6805C56.3043 43.5897 47.7173 75.4827 39.1465 107.384C38.214 110.861 37.2896 114.338 36.3003 118.042L36.3125 118.046ZM41.4514 116.679C42.7088 116.351 43.7035 116.019 44.7304 115.84C45.7776 115.657 46.2024 115.095 46.4579 114.088C47.4149 110.304 48.4648 106.548 49.4825 102.775C57.8911 71.4727 66.3078 40.17 74.7043 8.86324C74.83 8.40636 75.1861 7.92906 74.8429 7.36745C73.9494 7.59857 73.0881 7.91052 72.1987 8.03249C70.8645 8.2195 70.3587 8.96773 70.0221 10.2252C62.0148 40.1572 53.967 70.0812 45.9274 100.005C44.4597 105.472 42.9961 110.934 41.4554 116.675L41.4514 116.679ZM46.6471 115.127C50.3219 114.805 51.1833 114.226 51.8685 111.683C60.938 77.9421 69.9993 44.2014 79.0648 10.4565C79.4499 9.0131 79.8149 7.56565 80.2447 5.91602C79.2783 6.17145 78.5586 6.46307 77.8188 6.53237C76.0683 6.69141 75.4611 7.6944 75.0273 9.32381C67.0524 39.2154 59.0087 69.0949 50.9811 98.9744C49.5378 104.352 48.0985 109.725 46.643 115.131L46.6471 115.127ZM85.4281 4.52134C84.0858 4.87813 83.0466 5.23064 81.9793 5.40935C81.013 5.56776 80.6932 6.10565 80.4581 6.9709C71.1453 41.7225 61.8042 76.47 52.4833 111.222C52.382 111.606 52.1027 111.99 52.353 112.442C53.4004 111.856 54.3793 111.127 55.4751 110.726C56.7488 110.26 57.2628 109.455 57.5993 108.19C65.631 78.1688 73.7031 48.1559 81.7671 18.143C82.9631 13.6914 84.1591 9.2398 85.4241 4.5173L85.4281 4.52134ZM57.679 109.71C58.73 109.644 59.6681 109.393 60.5087 109.578C61.7778 109.86 62.0693 109.35 62.3612 108.259C71.078 75.7108 79.8272 43.179 88.5723 10.6431C89.221 8.2252 89.8616 5.79926 90.5103 3.34099C89.7181 3.22843 89.168 3.60076 88.5697 3.64974C86.5363 3.82517 85.7431 4.94958 85.216 6.92268C76.5072 39.6162 67.7053 72.2896 58.9278 104.963C58.5102 106.512 58.1088 108.068 57.679 109.71ZM25.9901 120.839C26.8877 120.604 27.5185 120.345 28.1694 120.284C30.0896 120.1 30.8222 119.02 31.3087 117.185C36.9971 95.703 42.7825 74.2456 48.5478 52.7841C48.8924 51.5105 49.5643 50.4347 50.7088 49.7021C51.5096 49.1921 52.0398 48.4196 52.279 47.5584C54.2938 40.2199 56.2602 32.8653 58.2468 25.5147C58.3968 24.9688 58.4417 24.326 57.969 24.0717C56.4941 23.2685 56.7821 22.1323 57.1307 20.8709C57.978 17.8182 58.7767 14.7494 59.6525 11.4501C58.3991 11.7826 57.4165 12.1189 56.4018 12.2854C55.3466 12.4601 54.9136 13.0304 54.6622 14.025C53.7498 17.6194 52.7404 21.1977 51.7876 24.7841C51.3133 26.559 51.7616 27.0235 53.5042 26.6381C55.5459 26.1878 56.3376 26.9714 55.8024 28.9849C54.4117 34.229 52.9726 39.4569 51.5859 44.705C51.0669 46.6781 49.8815 47.9443 47.9044 48.4674C46.1456 48.9336 45.025 50.0462 44.5506 51.805C44.3763 52.4478 44.1898 53.0867 44.0195 53.7336C39.4504 70.7354 34.8771 87.7412 30.3079 104.743C28.893 110.019 27.474 115.3 25.9901 120.831L25.9901 120.839ZM15.8052 123.568C16.9696 123.26 17.8228 122.956 18.7001 122.822C19.9898 122.623 20.5562 121.959 20.8968 120.673C26.8689 98.2779 32.8976 75.8986 38.9102 53.5113C39.5142 51.2753 39.2356 50.9886 36.9311 51.4189C35.2896 51.7274 34.3929 50.8064 34.8227 49.2457C36.2294 44.1149 37.7008 39.0082 39.0187 33.8531C39.6229 31.4878 40.9297 29.979 43.2627 29.3506C44.6131 28.9857 45.6325 28.1037 46.0054 26.8583C47.2335 22.722 48.2999 18.5373 49.4878 14.1666C48.1414 14.5274 47.0093 14.884 45.853 15.1194C45.0888 15.2776 44.7652 15.6498 44.5746 16.3978C43.8284 19.3493 42.9772 22.2767 42.2311 25.2282C41.8621 26.6797 41.1416 27.8445 39.9848 28.767C39.2284 29.37 38.5689 30.0617 38.3095 31.0159C36.3513 38.2735 34.4133 45.5432 32.447 52.8009C32.2524 53.5286 32.3368 54.1147 32.9751 54.5589C33.9003 55.209 33.9562 56.0578 33.6765 57.0808C28.9614 74.5435 24.2706 92.0062 19.5717 109.477C18.3392 114.07 17.1107 118.667 15.8011 123.564L15.8052 123.568ZM65.8564 110.055C68.2739 109.883 70.1423 108.774 70.8034 106.053C71.1968 104.44 71.6508 102.839 72.0806 101.23C80.6554 69.3244 89.2302 37.4192 97.801 5.51002C97.9997 4.77011 98.2024 4.03424 98.1222 3.25816C98.0379 2.42954 98.156 1.40674 96.8583 1.45223C95.116 1.51424 94.2181 2.21023 94.2414 3.39867C94.2568 4.31223 94.0661 5.19767 93.831 6.071C87.259 30.5285 80.6869 54.986 74.1109 79.4476C71.3661 89.6649 68.6011 99.8781 65.8564 110.055ZM39.7314 16.9352C37.6495 16.949 36.2824 17.9849 35.2746 19.5258C34.5502 20.6381 34.0762 21.8875 33.7275 23.1895C24.8567 56.2227 15.9697 89.2559 7.09083 122.289C6.88001 123.065 6.75406 123.87 6.64024 124.67C6.57927 125.103 6.63542 125.661 7.15685 125.705C8.31694 125.797 9.4168 125.368 10.4681 124.971C11.107 124.728 10.6023 123.964 10.7563 123.446C10.9509 122.816 10.9878 122.132 11.1581 121.494C19.3965 90.7974 27.6308 60.0971 35.9176 29.417C37.0407 25.2646 37.7393 20.9711 39.7314 16.9352ZM64.8278 10.0474C63.3399 10.4447 62.1553 10.7812 60.9625 11.0772C60.449 11.2029 60.1497 11.4538 60.0118 11.9956C59.1523 15.2625 58.2725 18.5254 57.3846 21.7883C57.2225 22.3867 57.222 23.0254 57.7715 23.3322C59.0524 24.0305 58.8818 25.0331 58.5737 26.1571C56.7331 32.9579 54.8844 39.7505 53.1003 46.5674C52.6949 48.1119 51.9784 49.3696 50.7245 50.3489C49.7942 51.0772 49.2436 52.0236 48.9315 53.184C43.1216 74.884 37.2834 96.58 31.4614 118.276C31.3722 118.608 31.1173 118.951 31.404 119.4C32.1762 119.193 32.9445 118.885 33.7288 118.804C35.3459 118.641 35.9408 117.739 36.3462 116.219C44.5199 85.5952 52.7541 54.9839 60.9803 24.3726C62.2371 19.6905 63.494 15.0084 64.8238 10.0595L64.8278 10.0474ZM44.28 15.7634C41.3977 15.7859 39.7232 17.1131 39.0299 19.6886C38.8799 20.2425 38.7097 20.7844 38.5597 21.3383C31.2498 48.5452 23.9398 75.7602 16.6299 102.967C14.9231 109.311 13.2041 115.651 11.5134 121.995C10.7755 124.76 10.9008 124.804 13.5733 124.232C14.96 123.936 15.4497 123.245 15.7903 121.951C19.3339 108.56 22.9422 95.1927 26.5343 81.8177C28.7317 73.6342 30.9372 65.4587 33.1347 57.2752C33.3374 56.5151 33.7626 55.6133 32.8656 55.0643C31.71 54.3537 31.7997 53.432 32.0916 52.3403C33.989 45.3132 35.8662 38.2739 37.7514 31.2427C38.0798 30.0096 38.7315 28.9701 39.7992 28.2498C40.6324 27.6913 41.2313 26.9308 41.4907 26.0251C42.4635 22.6449 43.3434 19.2365 44.284 15.7593L44.28 15.7634ZM64.9752 109.975C65.5783 109.081 65.9915 107.876 66.324 106.631C74.2015 77.3051 82.0871 47.9795 89.9646 18.6539C91.185 14.1053 92.4053 9.55666 93.5974 4.99592C93.8123 4.17515 94.1284 3.16431 93.4983 2.54228C93.0701 2.11413 92.2571 2.70899 91.6224 2.85906C90.8339 3.0416 90.9061 3.8015 90.7561 4.36351C84.1476 28.9059 77.5553 53.4484 70.959 77.9948C68.2061 88.2444 65.4532 98.494 62.7004 108.744C62.5301 109.374 62.2588 109.936 63.1801 110.372C63.8913 110.711 64.3199 110.614 64.9752 109.975ZM35.5143 18.0906C32.6877 19.2692 31.1256 21.4371 30.3553 24.3078C21.671 56.6618 12.9786 89.0157 4.29423 121.37C4.08342 122.146 3.913 122.955 3.87599 123.751C3.79789 125.388 4.60984 126.103 6.36833 126.033C5.99337 124.792 6.24899 123.591 6.57737 122.391C14.7224 92.1108 22.8352 61.823 31.0449 31.5593C32.2814 27.0107 32.7541 22.1756 35.5102 18.0947L35.5143 18.0906ZM69.8309 109.029C72.7266 107.264 74.1756 104.943 74.95 102.052C83.6384 69.6373 92.3511 37.2308 101.068 4.82832C101.242 4.17736 101.384 3.52642 101.34 2.85947C101.248 1.40024 100.016 0.572534 98.6252 0.994038C98.2613 1.10751 97.9742 1.18455 98.2245 1.65327C98.9107 2.9382 98.6267 4.24814 98.278 5.54198C89.3464 38.8299 80.4066 72.1098 71.4709 105.394C71.1466 106.59 70.7374 107.751 69.8268 109.033L69.8309 109.029ZM104.239 2.47314C104.254 3.90414 103.998 4.9109 103.727 5.92574C95.225 37.5479 86.7231 69.1781 78.2374 100.808C76.9765 105.502 74.0475 108.456 69.3534 109.692C67.6633 110.138 65.9813 110.617 64.2872 111.083C64.5734 112.016 65.1517 111.802 65.7137 111.652C67.4603 111.181 69.2191 110.748 70.9537 110.233C75.0092 109.029 77.6954 106.407 78.8022 102.312C83.1726 86.1387 87.5067 69.9536 91.8529 53.7726C96.114 37.911 100.371 22.0534 104.636 6.19586C104.948 5.03546 105.147 3.8913 104.243 2.47718L104.239 2.47314ZM101.366 1.0808C102.234 2.68494 101.715 4.24571 101.297 5.80235C92.7064 37.756 84.1113 69.7057 75.5365 101.659C75.0824 103.366 74.5192 105.011 73.5721 106.516C75.0042 105.14 75.9352 103.482 76.4461 101.574C83.2005 76.4248 89.959 51.2799 96.7175 26.127C98.619 19.0473 100.529 11.9676 102.422 4.88788C102.807 3.44445 102.93 2.05378 101.37 1.07676L101.366 1.0808ZM4.25816 126.091C2.92956 124.398 3.42399 122.805 3.84158 121.249C12.4976 88.9797 21.1697 56.7188 29.8257 24.4578C30.2108 23.0225 30.7576 21.6759 31.7532 20.1795C29.7953 21.9516 29.062 24.0097 28.4822 26.1728C20.0006 57.7909 11.5028 89.409 3.00499 121.027C2.75767 121.953 2.52248 122.875 2.57832 123.837C2.63416 124.783 2.90839 125.607 4.25816 126.091ZM3.27166 126.294C1.95467 125.252 1.98005 123.829 2.21161 122.378C2.32536 121.674 2.52802 120.987 2.71047 120.296C10.2798 92.1264 17.8331 63.9492 25.4307 35.784C26.6632 31.207 27.6694 26.5656 29.3263 22.1136C28.1773 23.2949 27.7193 24.8192 27.2936 26.384C20.5351 51.5693 13.7604 76.7546 6.99373 101.94C5.18144 108.696 3.36108 115.452 1.56092 122.213C0.960875 124.461 1.3482 125.406 3.26762 126.298L3.27166 126.294ZM74.1823 106.673C75.9258 105.18 77.0793 103.356 77.6793 101.116C84.5676 75.4131 91.4802 49.7184 98.3887 24.0196C100.108 17.6313 101.819 11.2349 103.526 4.84255C103.907 3.41124 103.997 2.04484 102.558 1.04348C103.382 2.48999 103.179 3.95349 102.773 5.45758C94.1862 37.3587 85.6154 69.2598 77.0527 101.169C76.4973 103.227 75.6429 105.091 74.1823 106.665L74.1823 106.673ZM3.5984 127.179C4.762 127.938 5.86573 127.731 6.96953 127.435C13.5398 125.672 20.106 123.904 26.6722 122.136C34.3867 120.06 42.1052 117.997 49.8157 115.901C50.1594 115.807 50.8707 115.936 50.7419 115.322C50.613 114.724 50.0186 114.866 49.5415 115.012C49.404 115.052 49.2625 115.081 49.1251 115.121C38.0587 118.093 26.9964 121.093 15.9261 124.037C11.8909 125.107 7.91222 126.404 3.5984 127.179ZM62.4119 110.607C61.0704 109.816 59.6798 109.906 58.2728 110.215C55.9965 110.705 54.0432 111.851 52.2392 113.259C51.7578 113.635 50.6701 114.02 51.2274 114.78C51.8936 115.681 52.4767 114.54 52.9175 114.196C55.7166 111.995 58.7334 110.473 62.4119 110.607Z" fill="white"/>
</svg>
