<svg width="106" height="129" viewBox="0 0 106 129" fill="none" xmlns="http://www.w3.org/2000/svg">
<path d="M76.1093 107.979C74.7217 109.277 73.0796 110.37 71.0702 110.845C69.9584 111.108 68.8586 111.433 67.7588 111.733C66.1779 112.158 64.6939 112.713 63.0374 111.623C61.9627 110.913 60.5355 111.241 59.2659 111.541C57.1473 112.044 55.1658 112.984 53.6043 114.44C52.1601 115.779 50.5185 116.371 48.7111 116.853C34.9116 120.531 21.0879 124.119 7.35689 128.035C3.54003 129.121 0.0216529 125.918 1.12843 121.863C9.88128 89.7636 18.4442 57.6119 27.1324 25.4883C28.2351 21.4128 31.079 18.7628 35.1142 17.6681C55.7347 12.0734 76.3754 6.55536 97.0121 1.00908C97.7924 0.8023 98.5647 0.563196 99.349 0.376627C103.15 -0.523784 106.147 2.48946 105.137 6.24562C96.4731 38.5227 87.7928 70.7918 79.1207 103.061C78.6099 104.953 77.5455 106.502 76.1052 107.975L76.1093 107.979ZM54.5132 12.9636C53.2517 13.2961 52.2126 13.6244 51.1452 13.8354C50.2841 14.0018 49.8997 14.4347 49.6807 15.2837C48.74 18.9711 47.7022 22.6343 46.7413 26.3177C46.2263 28.2948 45.0409 29.561 43.0557 30.076C41.2929 30.5382 40.1723 31.6507 39.6979 33.4176C38.2951 38.6577 36.864 43.8856 35.4855 49.1337C34.9989 50.9774 35.4352 51.3813 37.3111 50.9917C39.2235 50.59 40.0151 51.4545 39.5043 53.3467C33.7391 74.7597 27.978 96.1767 22.2209 117.59C21.8195 119.09 21.4302 120.594 21.0167 122.154C21.9545 122.218 22.6379 121.801 23.3778 121.716C24.9464 121.537 25.6302 120.708 26.0437 119.139C31.9591 96.8809 37.9635 74.6391 43.9112 52.3892C44.5072 50.1533 45.7534 48.7375 47.9934 48.0889C49.4773 47.6633 50.5048 46.6842 50.9346 45.0993C52.3414 39.8714 53.8089 34.6556 55.2319 29.4277C55.844 27.1837 55.5613 26.9009 53.2447 27.3434C51.6679 27.6438 50.8803 26.8319 51.2332 25.2268C51.4604 24.2079 51.7644 23.2011 52.032 22.1903C52.8428 19.174 53.6456 16.1578 54.5051 12.9636L54.5132 12.9636ZM36.3081 118.189C37.2946 117.938 38.0548 117.678 38.831 117.564C40.3794 117.349 41.0753 116.556 41.497 114.979C49.8531 83.6644 58.2778 52.3698 66.6865 21.0671C67.769 17.036 68.8434 12.9968 69.9624 8.81608C68.9354 9.08369 68.0782 9.39967 67.1888 9.52164C65.7819 9.7087 65.1952 10.4328 64.8222 11.8236C56.2999 43.7328 47.7129 75.6258 39.1421 107.527C38.2096 111.004 37.2852 114.481 36.296 118.185L36.3081 118.189ZM41.447 116.823C42.7044 116.494 43.6991 116.162 44.726 115.983C45.7732 115.8 46.1981 115.238 46.4535 114.231C47.4105 110.447 48.4605 106.691 49.4781 102.919C57.8867 71.6158 66.3034 40.3131 74.6999 9.00637C74.8256 8.54948 75.1817 8.0722 74.8385 7.51058C73.945 7.7417 73.0837 8.05365 72.1943 8.17562C70.8602 8.36263 70.3543 9.11086 70.0178 10.3683C62.0104 40.3003 53.9626 70.2243 45.923 100.148C44.4553 105.615 42.9917 111.077 41.4511 116.819L41.447 116.823ZM46.6427 115.27C50.3175 114.948 51.1789 114.369 51.8641 111.826C60.9336 78.0853 69.9949 44.3445 79.0604 10.5997C79.4455 9.15623 79.8105 7.70877 80.2403 6.05914C79.274 6.31458 78.5542 6.60619 77.8144 6.6755C76.0639 6.83454 75.4568 7.83752 75.0229 9.46694C67.048 39.3585 59.0043 69.238 50.9768 99.1175C49.5334 104.495 48.0941 109.868 46.6386 115.274L46.6427 115.27ZM85.4237 4.66447C84.0814 5.02126 83.0422 5.37377 81.9749 5.55248C81.0086 5.71089 80.6888 6.24878 80.4537 7.11403C71.1409 41.8656 61.7998 76.6132 52.4789 111.365C52.3776 111.749 52.0983 112.133 52.3486 112.586C53.396 111.999 54.3749 111.27 55.4707 110.869C56.7444 110.403 57.2584 109.598 57.5949 108.333C65.6266 78.312 73.6987 48.299 81.7627 18.2861C82.9587 13.8345 84.1547 9.38292 85.4197 4.66043L85.4237 4.66447ZM57.6746 109.853C58.7256 109.787 59.6637 109.536 60.5043 109.721C61.7734 110.003 62.0649 109.494 62.3568 108.402C71.0736 75.8539 79.8228 43.3221 88.5679 10.7862C89.2166 8.36833 89.8572 5.94239 90.5059 3.48411C89.7137 3.37155 89.1636 3.74389 88.5653 3.79287C86.5319 3.9683 85.7387 5.09271 85.2116 7.06581C76.5028 39.7593 67.7009 72.4327 58.9234 105.106C58.5058 106.655 58.1044 108.211 57.6746 109.853ZM25.9857 120.982C26.8833 120.747 27.5141 120.488 28.165 120.427C30.0852 120.243 30.8178 119.163 31.3043 117.328C36.9927 95.8462 42.7781 74.3887 48.5434 52.9272C48.888 51.6536 49.5599 50.5778 50.7044 49.8452C51.5052 49.3353 52.0354 48.5627 52.2746 47.7015C54.2894 40.363 56.2558 33.0084 58.2424 25.6578C58.3924 25.1119 58.4373 24.4692 57.9646 24.2149C56.4898 23.4116 56.7777 22.2755 57.1263 21.014C57.9736 17.9613 58.7723 14.8925 59.6481 11.5933C58.3947 11.9257 57.4121 12.262 56.3974 12.4286C55.3422 12.6032 54.9092 13.1735 54.6578 14.1682C53.7454 17.7625 52.736 21.3408 51.7832 24.9272C51.3089 26.7022 51.7572 27.1667 53.4998 26.7813C55.5415 26.331 56.3332 27.1145 55.798 29.1281C54.4074 34.3721 52.9682 39.6001 51.5815 44.8482C51.0625 46.8213 49.8771 48.0875 47.9 48.6105C46.1412 49.0767 45.0206 50.1893 44.5462 51.9481C44.3719 52.591 44.1854 53.2298 44.0152 53.8767C39.446 70.8785 34.8727 87.8844 30.3035 104.886C28.8886 110.163 27.4696 115.443 25.9857 120.974L25.9857 120.982ZM15.8008 123.711C16.9652 123.403 17.8184 123.099 18.6957 122.965C19.9854 122.766 20.5518 122.102 20.8924 120.817C26.8645 98.4211 32.8932 76.0418 38.9058 53.6544C39.5099 51.4185 39.2312 51.1317 36.9267 51.562C35.2852 51.8705 34.3885 50.9496 34.8183 49.3889C36.225 44.258 37.6964 39.1513 39.0143 33.9962C39.6185 31.631 40.9253 30.1221 43.2583 29.4937C44.6087 29.1288 45.6281 28.2468 46.001 27.0014C47.2291 22.8651 48.2956 18.6804 49.4834 14.3097C48.137 14.6705 47.0049 15.0271 45.8486 15.2625C45.0844 15.4208 44.7608 15.7929 44.5702 16.5409C43.824 19.4924 42.9728 22.4198 42.2267 25.3713C41.8577 26.8228 41.1372 27.9876 39.9804 28.9102C39.224 29.5131 38.5645 30.2048 38.3051 31.159C36.3469 38.4167 34.4089 45.6864 32.4426 52.944C32.248 53.6718 32.3324 54.2579 32.9707 54.702C33.8959 55.3521 33.9518 56.201 33.6721 57.2239C28.957 74.6866 24.2662 92.1494 19.5673 109.62C18.3348 114.213 17.1063 118.81 15.7967 123.707L15.8008 123.711ZM65.852 110.198C68.2695 110.026 70.138 108.917 70.799 106.196C71.1924 104.583 71.6464 102.982 72.0762 101.373C80.651 69.4675 89.2258 37.5623 97.7966 5.65315C97.9953 4.91324 98.198 4.17736 98.1178 3.40129C98.0335 2.57267 98.1516 1.54986 96.8539 1.59535C95.1116 1.65737 94.2137 2.35336 94.237 3.5418C94.2524 4.45536 94.0617 5.34079 93.8266 6.21413C87.2546 30.6716 80.6825 55.1292 74.1065 79.5907C71.3617 89.808 68.5968 100.021 65.852 110.198ZM39.727 17.0783C37.6452 17.0921 36.278 18.128 35.2702 19.669C34.5458 20.7812 34.0718 22.0307 33.7232 23.3326C24.8523 56.3658 15.9653 89.399 7.08643 122.432C6.87562 123.209 6.74967 124.013 6.63585 124.814C6.57487 125.246 6.63103 125.804 7.15246 125.848C8.31255 125.94 9.41241 125.511 10.4637 125.114C11.1026 124.871 10.5979 124.107 10.752 123.59C10.9465 122.959 10.9834 122.276 11.1537 121.637C19.3921 90.9405 27.6264 60.2402 35.9132 29.5602C37.0363 25.4077 37.7349 21.1142 39.727 17.0783ZM64.8234 10.1905C63.3355 10.5878 62.1509 10.9243 60.9581 11.2203C60.4446 11.346 60.1453 11.5969 60.0074 12.1387C59.1479 15.4056 58.2681 18.6685 57.3802 21.9314C57.2181 22.5298 57.2176 23.1685 57.7671 23.4753C59.048 24.1736 58.8774 25.1762 58.5693 26.3003C56.7287 33.101 54.88 39.8936 53.096 46.7105C52.6905 48.255 51.974 49.5128 50.7201 50.492C49.7898 51.2204 49.2393 52.1667 48.9271 53.3271C43.1172 75.0271 37.279 96.7231 31.457 118.419C31.3678 118.751 31.1129 119.094 31.3996 119.543C32.1718 119.336 32.9401 119.028 33.7244 118.947C35.3415 118.784 35.9364 117.882 36.3419 116.362C44.5155 85.7383 52.7497 55.127 60.9759 24.5157C62.2327 19.8336 63.4896 15.1516 64.8194 10.2026L64.8234 10.1905ZM44.2756 15.9065C41.3933 15.929 39.7188 17.2562 39.0255 19.8317C38.8755 20.3857 38.7053 20.9275 38.5553 21.4814C31.2454 48.6883 23.9354 75.9033 16.6255 103.11C14.9187 109.454 13.1997 115.794 11.509 122.138C10.7711 124.903 10.8964 124.948 13.5689 124.376C14.9556 124.079 15.4453 123.388 15.7859 122.094C19.3295 108.703 22.9378 95.3358 26.5299 81.9608C28.7273 73.7773 30.9328 65.6019 33.1303 57.4184C33.333 56.6582 33.7582 55.7564 32.8612 55.2074C31.7056 54.4969 31.7953 53.5751 32.0872 52.4834C33.9846 45.4563 35.8618 38.417 37.747 31.3859C38.0754 30.1527 38.7271 29.1133 39.7948 28.3929C40.628 27.8344 41.2269 27.0739 41.4863 26.1682C42.4592 22.7881 43.339 19.3796 44.2796 15.9024L44.2756 15.9065ZM64.9708 110.118C65.5739 109.224 65.9871 108.019 66.3196 106.774C74.1971 77.4482 82.0827 48.1226 89.9602 18.7971C91.1806 14.2484 92.4009 9.69979 93.593 5.13905C93.8079 4.31828 94.124 3.30743 93.4939 2.68541C93.0657 2.25725 92.2527 2.85212 91.618 3.00219C90.8295 3.18472 90.9017 3.94463 90.7517 4.50664C84.1432 29.0491 77.5509 53.5915 70.9546 78.138C68.2017 88.3876 65.4488 98.6372 62.696 108.887C62.5257 109.518 62.2544 110.08 63.1757 110.515C63.8869 110.854 64.3155 110.757 64.9708 110.118ZM35.5099 18.2337C32.6833 19.4123 31.1212 21.5803 30.3509 24.451C21.6666 56.8049 12.9742 89.1588 4.28984 121.513C4.07902 122.289 3.9086 123.098 3.87159 123.894C3.79349 125.531 4.60545 126.246 6.36393 126.176C5.98897 124.935 6.24459 123.735 6.57297 122.534C14.718 92.2539 22.8308 61.9661 31.0405 31.7024C32.277 27.1538 32.7497 22.3187 35.5058 18.2378L35.5099 18.2337ZM69.8265 109.172C72.7222 107.407 74.1712 105.086 74.9456 102.195C83.634 69.7805 92.3467 37.3739 101.063 4.97145C101.238 4.32049 101.38 3.66955 101.336 3.00259C101.244 1.54336 100.012 0.715662 98.6208 1.13717C98.2569 1.25064 97.9698 1.32767 98.2201 1.79639C98.9063 3.08132 98.6223 4.39127 98.2736 5.68511C89.342 38.973 80.4022 72.2529 71.4665 105.537C71.1422 106.734 70.733 107.894 69.8224 109.176L69.8265 109.172ZM104.235 2.61627C104.25 4.04726 103.994 5.05403 103.722 6.06888C95.2206 37.691 86.7187 69.3212 78.233 100.951C76.9722 105.646 74.0431 108.599 69.349 109.836C67.6589 110.282 65.9769 110.76 64.2828 111.226C64.569 112.16 65.1473 111.945 65.7093 111.795C67.456 111.325 69.2147 110.891 70.9493 110.376C75.0048 109.172 77.691 106.551 78.7978 102.455C83.1682 86.2818 87.5023 70.0967 91.8485 53.9157C96.1096 38.0541 100.367 22.1966 104.632 6.33899C104.944 5.17859 105.143 4.03443 104.239 2.62031L104.235 2.61627ZM101.361 1.22393C102.229 2.82807 101.711 4.38883 101.293 5.94547C92.702 37.8992 84.1069 69.8488 75.5321 101.802C75.078 103.509 74.5148 105.154 73.5677 106.659C74.9998 105.283 75.9308 103.625 76.4417 101.717C83.1961 76.5679 89.9546 51.4231 96.7132 26.2701C98.6146 19.1904 100.524 12.1107 102.418 5.03101C102.803 3.58758 102.925 2.19691 101.366 1.21988L101.361 1.22393ZM4.25377 126.234C2.92517 124.542 3.41959 122.949 3.83719 121.392C12.4932 89.1228 21.1653 56.8619 29.8213 24.6009C30.2064 23.1656 30.7532 21.819 31.7488 20.3226C29.7909 22.0947 29.0576 24.1528 28.4778 26.316C19.9962 57.934 11.4984 89.5521 3.00059 121.17C2.75328 122.096 2.51809 123.018 2.57392 123.98C2.62977 124.926 2.904 125.75 4.25377 126.234ZM3.26727 126.437C1.95028 125.395 1.97566 123.972 2.20722 122.521C2.32096 121.818 2.52362 121.13 2.70608 120.439C10.2755 92.2696 17.8287 64.0923 25.4263 35.9271C26.6588 31.3502 27.665 26.7087 29.3219 22.2568C28.1729 23.438 27.7149 24.9624 27.2892 26.5271C20.5307 51.7124 13.756 76.8977 6.98933 102.083C5.17705 108.839 3.35669 115.595 1.55653 122.356C0.95648 124.604 1.3438 125.549 3.26322 126.441L3.26727 126.437ZM74.1779 106.816C75.9214 105.323 77.0749 103.499 77.6749 101.259C84.5633 75.5563 91.4758 49.8615 98.3843 24.1627C100.103 17.7744 101.814 11.378 103.521 4.98567C103.902 3.55437 103.992 2.18797 102.554 1.1866C103.378 2.63312 103.174 4.09662 102.769 5.60071C94.1819 37.5018 85.6111 69.403 77.0483 101.312C76.4929 103.37 75.6385 105.234 74.178 106.808L74.1779 106.816ZM3.594 127.322C4.75761 128.081 5.86134 127.874 6.96514 127.578C13.5354 125.815 20.1016 124.047 26.6678 122.279C34.3823 120.204 42.1008 118.14 49.8113 116.044C50.155 115.951 50.8663 116.079 50.7375 115.465C50.6086 114.867 50.0142 115.009 49.5371 115.155C49.3997 115.195 49.2581 115.224 49.1207 115.264C38.0543 118.236 26.992 121.236 15.9217 124.18C11.8866 125.25 7.90783 126.547 3.594 127.322ZM62.4075 110.751C61.066 109.959 59.6754 110.049 58.2684 110.358C55.9922 110.849 54.0388 111.994 52.2348 113.402C51.7534 113.779 50.6657 114.163 51.223 114.923C51.8893 115.824 52.4723 114.684 52.9132 114.34C55.7122 112.138 58.729 110.616 62.4075 110.751Z" fill="#08FFD0"/>
</svg>
