<svg width="26" height="22" viewBox="0 0 26 22" fill="none" xmlns="http://www.w3.org/2000/svg">
<path d="M17.793 0.238281H18.1519C18.1919 0.243281 18.231 0.251272 18.27 0.254272C18.379 0.263272 18.4887 0.267273 18.5977 0.280273C19.787 0.419506 20.8942 0.957385 21.7388 1.80627C21.7706 1.84828 21.815 1.87882 21.8657 1.89325C21.9164 1.90768 21.9708 1.90523 22.02 1.88629H22.0298C22.9114 1.69606 23.7651 1.39357 24.5698 0.986267C24.7508 0.895267 24.927 0.79428 25.106 0.69928C25.137 0.68328 25.1639 0.654274 25.2129 0.668274C25.2039 0.704274 25.198 0.735311 25.187 0.768311C24.9358 1.48582 24.5336 2.14118 24.0078 2.69031C23.7138 2.99808 23.3842 3.26962 23.0259 3.49927C23.0039 3.51327 22.9827 3.5313 22.9507 3.5553C22.9787 3.5553 22.9876 3.5553 22.9976 3.5553C23.7597 3.45955 24.5091 3.27876 25.231 3.0163C25.468 2.9303 25.6987 2.82626 25.9307 2.73126V2.7713C25.9107 2.7973 25.8896 2.82328 25.8696 2.85028C25.2091 3.81081 24.3989 4.65924 23.4697 5.36328C23.2767 5.51028 23.2938 5.44129 23.2988 5.71429C23.3176 6.40537 23.2898 7.09694 23.2158 7.7843C23.0944 8.8419 22.8651 9.88428 22.5317 10.8953C22.2218 11.8368 21.8247 12.7474 21.3457 13.6153C20.6735 14.8375 19.8386 15.9627 18.8638 16.9603C18.515 17.3159 18.1477 17.653 17.7637 17.9703C16.4502 19.0599 14.9511 19.9034 13.3379 20.4603C12.4638 20.762 11.5637 20.982 10.6489 21.1173C10.1749 21.1883 9.6997 21.2403 9.2207 21.2643C9.0997 21.2703 8.97796 21.2863 8.85596 21.2983H7.55566C7.51366 21.2923 7.47071 21.2843 7.42871 21.2803C7.09071 21.2513 6.75202 21.2313 6.41602 21.1933C5.67909 21.1088 4.94953 20.9684 4.23389 20.7733C3.36721 20.5377 2.52324 20.2255 1.71191 19.8403C1.18059 19.5874 0.66449 19.3039 0.166016 18.9913C0.137016 18.9733 0.109543 18.9513 0.081543 18.9303C0.0846685 18.9218 0.0876398 18.9131 0.0898438 18.9043C1.00148 19.0019 1.92137 18.9878 2.82959 18.8623C3.74241 18.734 4.63472 18.4862 5.48291 18.1253C6.33438 17.7654 7.1345 17.2946 7.86279 16.7253C7.81779 16.7163 7.79688 16.7113 7.77588 16.7093C7.64388 16.6973 7.51098 16.6883 7.37598 16.6733C6.75679 16.6024 6.15494 16.4212 5.59961 16.1383C4.79463 15.7305 4.10645 15.1249 3.59961 14.3783C3.33823 13.9965 3.12897 13.5815 2.97754 13.1443C2.96795 13.1086 2.96173 13.0721 2.95801 13.0353C2.97125 13.0302 2.98452 13.0265 2.99854 13.0243C3.02199 13.0253 3.04567 13.0276 3.06885 13.0313C3.41028 13.0865 3.75583 13.1095 4.10156 13.1003C4.46725 13.0901 4.83133 13.0419 5.18701 12.9563C5.20808 12.9491 5.22804 12.94 5.24756 12.9293C5.23656 12.9183 5.23254 12.9123 5.22754 12.9103L5.12793 12.8853C4.03919 12.6227 3.06228 12.0203 2.33887 11.1653C1.69236 10.4187 1.27316 9.50257 1.13086 8.52527C1.09386 8.27927 1.08589 8.02531 1.06689 7.78131C1.06874 7.73948 1.07484 7.69792 1.08496 7.65729C1.13296 7.67929 1.16578 7.69229 1.19678 7.70929C1.60753 7.92342 2.0444 8.08278 2.49658 8.18329C2.75595 8.2428 3.01996 8.28027 3.28564 8.29529C3.31896 8.29692 3.35243 8.29692 3.38574 8.29529L3.39355 8.2713C2.85035 7.892 2.382 7.41566 2.01172 6.86627C1.6432 6.31996 1.38043 5.70943 1.23682 5.06628C1.09027 4.41938 1.06795 3.75053 1.1709 3.09528C1.26874 2.44153 1.49613 1.81391 1.83984 1.24927C1.84881 1.25271 1.85713 1.25746 1.86475 1.26331C1.88375 1.28231 1.90097 1.3033 1.91797 1.3233C2.45036 1.96616 3.03506 2.56385 3.66602 3.11029C4.69968 4.00725 5.85085 4.75887 7.08789 5.3443C8.17943 5.86189 9.3292 6.24598 10.5127 6.48828C11.1026 6.60801 11.699 6.69316 12.2988 6.74329C12.4268 6.75429 12.558 6.76226 12.687 6.76526C12.752 6.76526 12.7629 6.74926 12.7559 6.68726C12.7541 6.67408 12.7511 6.66111 12.7476 6.64832C12.6614 6.2146 12.6282 5.77202 12.6479 5.33026C12.6671 4.86802 12.7472 4.4104 12.8867 3.9693C13.191 2.9946 13.7734 2.12987 14.562 1.48126C15.3623 0.808676 16.3451 0.390822 17.3848 0.281311C17.5298 0.261311 17.661 0.250281 17.793 0.238281Z" fill="white"/>
</svg>
